<?xml version="1.0" standalone="no"?>
<!DOCTYPE svg PUBLIC "-//W3C//DTD SVG 1.1//EN" "http://www.w3.org/Graphics/SVG/1.1/DTD/svg11.dtd" >
<svg xmlns="http://www.w3.org/2000/svg" xmlns:xlink="http://www.w3.org/1999/xlink" version="1.1">
<metadata>
Created by FontForge 20190801 at Fri Jul 25 17:01:23 2014
 By root
2014 Iconian Fonts - www.iconian.com
</metadata>
<defs>
<font id="HollowPointCondensed" horiz-adv-x="414" >
  <font-face 
    font-family="Hollow Point Condensed"
    font-weight="400"
    font-stretch="condensed"
    units-per-em="1000"
    panose-1="0 0 0 0 0 0 0 0 0 0"
    ascent="800"
    descent="-200"
    x-height="470"
    cap-height="479"
    bbox="-171 -179 949 753"
    underline-thickness="50"
    underline-position="-125"
    unicode-range="U+0020-2122"
  />
<missing-glyph horiz-adv-x="500" 
 />
    <glyph glyph-name=".notdef" horiz-adv-x="500" 
 />
    <glyph glyph-name=".null" horiz-adv-x="0" 
 />
    <glyph glyph-name="nonmarkingreturn" horiz-adv-x="500" 
 />
    <glyph glyph-name="space" unicode=" " horiz-adv-x="313" 
 />
    <glyph glyph-name="space" unicode="&#xa0;" horiz-adv-x="313" 
 />
    <glyph glyph-name="FL0021h" unicode="!" horiz-adv-x="147" 
d="M122 651v-389q-3 -8 -14 -27t-26 -40t-30.5 -39.5t-25.5 -24.5v377q21 35 45 74.5t51 68.5zM23 58q0 25 14.5 43t35.5 18t35.5 -18t14.5 -43q0 -24 -14.5 -42t-35.5 -18t-35.5 18t-14.5 42z" />
    <glyph glyph-name="FL0022h" unicode="&#x22;" horiz-adv-x="271" 
d="M146 526q0 25 14 43t35 18t36 -18t15 -43v-1q0 -34 -14.5 -63t-41.5 -56v61h-2q-17 0 -29.5 17.5t-12.5 41.5zM26 526q0 25 14 43t35 18t36 -18t15 -43v-1q0 -34 -14.5 -63t-41.5 -56v61h-2q-17 0 -29.5 17.5t-12.5 41.5z" />
    <glyph glyph-name="FL0023h" unicode="#" horiz-adv-x="454" 
d="M203 479v-99h58q16 26 33.5 52t35.5 47v-99h98q-4 -15 -15.5 -34.5t-24.5 -37.5t-23 -30.5t-11 -12.5h-24v-60h98q-4 -15 -15.5 -34.5t-24.5 -37.5t-23 -30.5t-11 -12.5h-41q-8 -14 -18.5 -29t-21.5 -29t-21.5 -25t-17.5 -15v98h-48q-8 -14 -18.5 -29t-21.5 -29
t-21.5 -25t-17.5 -15v98h-81v115h81v60h-81v115h108q16 26 33 52t36 47zM234 265h-31v-60h31v60z" />
    <glyph glyph-name="FL0024h" unicode="$" horiz-adv-x="416" 
d="M257 631v-161h133q-4 -15 -15.5 -34.5t-24.5 -37.5t-23 -30.5l-10 -12.5h-60v-62h70q13 0 24.5 -7.5t20 -20t13.5 -28t5 -31.5v-116q0 -16 -5 -32t-13 -29t-19.5 -21t-24.5 -8h-71v-29q-3 -8 -14 -27t-26 -40t-30.5 -39.5t-25.5 -24.5v160h-135q4 15 15.5 34.5t24 37.5
t22.5 30.5t11 12.5h62v63h-73q-13 0 -24.5 7.5t-19.5 19.5t-13 27.5t-5 31.5v116q0 16 5 32t13 29t19.5 21t24.5 8h73v23q22 35 46 72t50 66zM294 178h-37v-63h37v63zM122 293h39v62h-39v-62z" />
    <glyph glyph-name="FL0025h" unicode="%" horiz-adv-x="482" 
d="M60 0l251 471h112l-251 -471h-112zM26 310v148q0 4 3 11t7.5 14t9.5 11.5t9 4.5h121q5 0 10.5 -4.5t10 -10.5t7.5 -13t3 -13v-148q0 -5 -2.5 -12.5t-7 -15t-10 -13t-10.5 -5.5h-122q-6 0 -11 5.5t-9 13t-6.5 15t-2.5 12.5zM84 428v-92h64v92h-64zM275 17v148q0 4 3 11
t7.5 14t10 11.5t9.5 4.5h121q5 0 10.5 -4.5t10 -10.5t7.5 -13t3 -13v-148q0 -5 -2.5 -12.5t-7 -15t-10 -13t-11.5 -5.5h-121q-6 0 -11 5.5t-9.5 13t-7 15t-2.5 12.5zM334 135v-92h64v92h-64z" />
    <glyph glyph-name="FL0026h" unicode="&#x26;" horiz-adv-x="380" 
d="M246 628v-158h120q-4 -15 -15.5 -34.5t-24 -37.5t-22.5 -30.5t-11 -12.5h-171v-61h244q-4 -15 -15.5 -34.5t-24 -37.5t-22.5 -30.5t-11 -12.5h-171v-64h244q-4 -15 -15.5 -34.5t-24 -37.5t-22.5 -30.5t-11 -12.5h-47v-29q-2 -8 -13.5 -27t-26.5 -40t-30.5 -39.5
t-25.5 -24.5v160h-62q-13 0 -24.5 8t-19.5 20.5t-13 28.5t-5 32v291q0 16 5 32t13 29t19.5 21t24.5 8h63v32q22 43 44.5 76t50.5 50z" />
    <glyph glyph-name="FL0027h" unicode="'" horiz-adv-x="151" 
d="M26 526q0 25 14 43t35 18t36 -18t15 -43v-1q0 -34 -14.5 -63t-41.5 -56v61h-2q-17 0 -29.5 17.5t-12.5 41.5z" />
    <glyph glyph-name="FL0028h" unicode="(" horiz-adv-x="244" 
d="M165 -115h-77q-13 0 -24.5 8t-19.5 20.5t-13 28.5t-5 32v523q0 16 5 32t13 29t19.5 21t24.5 8h150q-4 -15 -15.5 -34.5t-24.5 -37.5t-23 -30.5l-10 -12.5h-43v-472h116q-4 -15 -15.5 -34.5t-24.5 -37.5t-23 -30.5z" />
    <glyph glyph-name="FL0029h" unicode=")" horiz-adv-x="244" 
d="M79 -115h77q13 0 24.5 8t19.5 20.5t13 28.5t5 32v523q0 16 -5 32t-13 29t-19.5 21t-24.5 8h-150q4 -15 15.5 -34.5t24.5 -37.5t23 -30.5l10 -12.5h43v-472h-116q4 -15 15.5 -34.5t24.5 -37.5t23 -30.5z" />
    <glyph glyph-name="FL002Ah" unicode="*" horiz-adv-x="233" 
d="M26 463v148q0 4 3 11t7.5 14t9.5 11.5t9 4.5h121q5 0 10.5 -4.5t10 -10.5t7.5 -13t3 -13v-148q0 -5 -2.5 -12.5t-7 -15t-10 -13t-10.5 -5.5h-122q-6 0 -11 5.5t-9 13t-6.5 15t-2.5 12.5zM86 579v-88h60v88h-60z" />
    <glyph glyph-name="FL002Bh" unicode="+" horiz-adv-x="354" 
d="M137 430h92v-138h111q-4 -15 -15.5 -34.5t-24.5 -37.5t-23 -30.5t-11 -12.5h-37v-140q-12 5 -27.5 19.5t-30 30.5t-24.5 28.5t-10 13.5v48h-111v115h111v138z" />
    <glyph glyph-name="FL002Ch" unicode="," horiz-adv-x="151" 
d="M26 58q0 25 14 43t35 18t36 -18t15 -43v-1q0 -34 -14.5 -63t-41.5 -56v61h-2q-17 0 -29.5 17.5t-12.5 41.5z" />
    <glyph glyph-name="FL002Dh" unicode="-" horiz-adv-x="271" 
d="M26 177v115h232q-4 -15 -16 -34.5t-24.5 -37.5t-22.5 -30.5t-11 -12.5h-158z" />
    <glyph glyph-name="FL002Eh" unicode="." horiz-adv-x="151" 
d="M26 58q0 25 14 43t35 18t36 -18t15 -43q0 -24 -15 -42t-36 -18t-35 18t-14 42z" />
    <glyph glyph-name="FL002Fh" unicode="/" 
d="M26 0l251 471h112l-251 -471h-112z" />
    <glyph glyph-name="FL0030h" unicode="0" 
d="M26 81v320q0 7 5 19t12.5 23t16 19.5t15.5 8.5h263q8 0 17 -7.5t16.5 -18t12.5 -22.5t5 -22v-320q0 -8 -4.5 -22t-11.5 -27t-16 -22.5t-17 -9.5h-266q-8 0 -16.5 9.5t-15.5 22.5t-11.5 27t-4.5 22zM122 117h171v240h-171v-240z" />
    <glyph glyph-name="FL0031h" unicode="1" horiz-adv-x="147" 
d="M122 480v-350q-3 -8 -14 -27t-26 -40t-30.5 -39.5t-25.5 -24.5v338q21 35 45 74.5t51 68.5z" />
    <glyph glyph-name="FL0032h" unicode="2" horiz-adv-x="416" 
d="M294 293h-205q-13 0 -24.5 -7.5t-20 -20t-13.5 -28t-5 -31.5v-116q0 -16 5 -32t13 -29t19.5 -21t24.5 -8h302q-4 15 -15.5 34.5t-24.5 37.5t-23 30.5l-10 12.5h-195v63h206q13 0 24.5 7.5t19.5 19.5t13 27.5t5 31.5v116q0 16 -5 32t-13 29t-19.5 21t-24.5 8h-302
q4 -15 15.5 -34.5t24 -37.5t22.5 -30.5t11 -12.5h195v-62z" />
    <glyph glyph-name="FL0033h" unicode="3" horiz-adv-x="380" 
d="M87 470h205q13 0 24.5 -8t19.5 -20.5t13 -28.5t5 -32v-291q0 -16 -5 -32t-13 -29t-19.5 -21t-24.5 -8h-278q4 15 15.5 34.5t24 37.5t22.5 30.5t11 12.5h171v61h-244q4 15 15.5 34.5t24 37.5t22.5 30.5t11 12.5h171v64h-244q4 15 15.5 34.5t24 37.5t22.5 30.5t11 12.5z
" />
    <glyph glyph-name="FL0034h" unicode="4" 
d="M389 480v-350q-3 -8 -14 -27t-26 -40t-30.5 -39.5t-25.5 -24.5v178h-219q-8 0 -16.5 9.5t-15.5 22.5t-11.5 27t-4.5 22v213h96v-177h171v55q2 8 13 28.5t25.5 42t30 39.5t27.5 21z" />
    <glyph glyph-name="FL0035h" unicode="5" horiz-adv-x="416" 
d="M122 293h205q13 0 24.5 -7.5t20 -20t13.5 -28t5 -31.5v-116q0 -16 -5 -32t-13 -29t-19.5 -21t-24.5 -8h-302q4 15 15.5 34.5t24 37.5t22.5 30.5t11 12.5h195v63h-206q-13 0 -24.5 7.5t-19.5 19.5t-13 27.5t-5 31.5v156q0 22 9.5 36t30.5 14h276q-4 -15 -15.5 -34.5
t-24.5 -37.5t-23 -30.5l-10 -12.5h-147v-62z" />
    <glyph glyph-name="FL0036h" unicode="6" horiz-adv-x="402" 
d="M122 293h208q7 0 15.5 -7t15.5 -18t12 -24t5 -24v-150q0 -12 -5 -24.5t-12.5 -22.5t-18 -16.5t-20.5 -6.5h-240q-8 0 -17.5 7t-18 17.5t-14.5 22.5t-6 23v330q0 10 5.5 22t13.5 22.5t17.5 18t18.5 7.5h233l23 -30t52 -85h-267v-62zM282 138v17q0 7 -1.5 15t-6.5 8h-80
l-72 92v-155h152q6 0 7 8.5t1 14.5z" />
    <glyph glyph-name="FL0037h" unicode="7" horiz-adv-x="392" 
d="M238 355l-165 -355h129l176 380q0 16 -4.5 32t-12 29t-18.5 21t-24 8h-305q4 -15 15.5 -34.5t24 -37.5t22.5 -30.5t11 -12.5h151z" />
    <glyph glyph-name="FL0038h" unicode="8" 
d="M26 81v320q0 7 5 19t12.5 23t16 19.5t15.5 8.5h263q8 0 17 -7.5t16.5 -18t12.5 -22.5t5 -22v-320q0 -8 -4.5 -22t-11.5 -27t-16 -22.5t-17 -9.5h-266q-8 0 -16.5 9.5t-15.5 22.5t-11.5 27t-4.5 22zM122 117h171v148q-8 -15 -18.5 -30.5t-20 -28.5t-16.5 -21.5t-8 -8.5
h-108v-59zM122 357v-66h171v66h-171z" />
    <glyph glyph-name="FL0039h" unicode="9" horiz-adv-x="402" 
d="M281 177h-208q-7 0 -15.5 7t-15.5 18t-12 24t-5 24v150q0 12 5 24.5t12.5 22.5t17.5 16.5t21 6.5h240q8 0 17.5 -7t18 -17.5t14.5 -23t6 -22.5v-330q0 -10 -5.5 -22t-14 -22.5t-18 -18t-17.5 -7.5h-233q-1 0 -23.5 30t-51.5 85h267v62zM120 332v-17q0 -7 2 -15t7 -8h80
l72 -92v155h-152q-7 0 -8 -8.5t-1 -14.5z" />
    <glyph glyph-name="FL003Ah" unicode=":" horiz-adv-x="151" 
d="M26 58q0 25 14 43t35 18t36 -18t15 -43q0 -24 -15 -42t-36 -18t-35 18t-14 42zM26 294q0 25 14 43t35 18t36 -18t15 -43q0 -24 -15 -42t-36 -18t-35 18t-14 42z" />
    <glyph glyph-name="FL003Bh" unicode=";" horiz-adv-x="151" 
d="M26 294q0 25 14 43t35 18t36 -18t15 -43q0 -24 -15 -42t-36 -18t-35 18t-14 42zM26 58q0 25 14 43t35 18t36 -18t15 -43v-1q0 -34 -14.5 -63t-41.5 -56v61h-2q-17 0 -29.5 17.5t-12.5 41.5z" />
    <glyph glyph-name="FL003Ch" unicode="&#x3c;" horiz-adv-x="265" 
d="M14 235l125 236h112l-125 -236l125 -235h-112z" />
    <glyph glyph-name="FL003Dh" unicode="=" horiz-adv-x="338" 
d="M26 265v115h287q-4 -15 -16 -34.5t-24.5 -37.5t-22.5 -30.5t-11 -12.5h-213zM26 90v115h287q-4 -15 -16 -34.5t-24.5 -37.5t-22.5 -30.5t-11 -12.5h-213z" />
    <glyph glyph-name="FL003Eh" unicode="&#x3e;" horiz-adv-x="265" 
d="M251 235l-125 236h-112l125 -236l-125 -235h112z" />
    <glyph glyph-name="FL003Fh" unicode="?" horiz-adv-x="416" 
d="M89 470h205v66h-195q-1 0 -11 12.5t-22.5 30.5t-24 37.5t-15.5 34.5h302q13 0 24.5 -8t19.5 -21t13 -29t5 -32v-119q0 -16 -5 -31.5t-13 -27.5t-19.5 -19.5t-24.5 -7.5h-206v-94q-3 -8 -14 -27t-26 -40t-30.5 -39.5t-25.5 -24.5v252q0 16 5 31.5t13.5 28t20 20t24.5 7.5z
M23 58q0 25 14.5 43t35.5 18t35.5 -18t14.5 -43q0 -24 -14.5 -42t-35.5 -18t-35.5 18t-14.5 42z" />
    <glyph glyph-name="FL0040h" unicode="@" horiz-adv-x="510" 
d="M347 -115h-259q-13 0 -24.5 8t-19.5 20.5t-13 28.5t-5 32v406q0 16 5 32t13 29t19.5 21t24.5 8h334q13 0 24.5 -8t19.5 -21t13 -29t5 -32v-235q0 -16 -5 -32t-13 -29t-19.5 -21t-24.5 -8h-232q-6 0 -11.5 5.5t-9.5 13t-6.5 15t-2.5 12.5v158q0 4 3 11t7.5 14t10 11.5
t9.5 4.5h128q5 0 11 -4.5t10.5 -10.5t7.5 -13t3 -13v-114h38v210h-266v-355h299q-4 -15 -16 -34.5t-24.5 -37.5t-22.5 -30.5t-11 -12.5zM232 212v-68h45v68h-45z" />
    <glyph glyph-name="FL0041h" unicode="A" horiz-adv-x="402" 
d="M281 293h-208q-7 0 -15.5 -7t-15.5 -18t-12 -24t-5 -24v-150q0 -12 5 -24.5t12.5 -22.5t17.5 -16.5t21 -6.5h240q8 0 17.5 7t18 17.5t14.5 22.5t6 23v330q0 10 -5.5 22t-14 22.5t-18 18t-17.5 7.5h-233q-1 0 -23.5 -30t-51.5 -85h267v-62zM120 138v17q0 7 2 15t7 8h80
l72 92v-155h-152q-7 0 -8 8.5t-1 14.5z" />
    <glyph glyph-name="FL0042h" unicode="B" 
d="M192 354h101v-240h-171v336q14 -24 30.5 -48t39.5 -48zM26 650v-580q0 -7 5 -19t12.5 -23t16 -19.5t15.5 -8.5h263q8 0 17 7.5t16.5 18t12.5 22.5t5 22v320q0 8 -4.5 22t-11.5 27t-16 22.5t-17 9.5h-210q-1 0 -3.5 5.5t-4.5 9.5q-14 46 -40 88.5t-56 75.5z" />
    <glyph glyph-name="FL0043h" unicode="C" horiz-adv-x="380" 
d="M293 0h-205q-13 0 -24.5 8t-19.5 20.5t-13 28.5t-5 32v291q0 16 5 32t13 29t19.5 21t24.5 8h278q-4 -15 -15.5 -34.5t-24.5 -37.5t-23 -30.5l-10 -12.5h-171v-240h244q-4 -15 -15.5 -34.5t-24.5 -37.5t-23 -30.5z" />
    <glyph glyph-name="FL0044h" unicode="D" 
d="M222 354h-100v-240h171v336q-14 -24 -30.5 -48t-40.5 -48zM389 650v-580q0 -7 -5 -19t-12.5 -23t-16.5 -19.5t-16 -8.5h-262q-9 0 -18 7.5t-16.5 18t-12 22.5t-4.5 22v320q0 8 4.5 22t11.5 27t15.5 22.5t16.5 9.5h211q1 0 3.5 5.5t4.5 9.5q14 46 39.5 88.5t56.5 75.5z
" />
    <glyph glyph-name="FL0045h" unicode="E" horiz-adv-x="402" 
d="M122 177h208q7 0 15.5 7t15.5 18t12 24t5 24v150q0 12 -5 24.5t-12.5 22.5t-18 16.5t-20.5 6.5h-240q-8 0 -17.5 -7t-18 -17.5t-14.5 -23t-6 -22.5v-330q0 -10 5.5 -22t13.5 -22.5t17.5 -18t18.5 -7.5h233l23 30t52 85h-267v62zM282 332v-17q0 -7 -1.5 -15t-6.5 -8h-80
l-72 -92v155h152q6 0 7 -8.5t1 -14.5z" />
    <glyph glyph-name="FL0046h" unicode="F" horiz-adv-x="333" 
d="M88 470h231q-4 -15 -15.5 -34.5t-24.5 -37.5t-23 -30.5l-10 -12.5h-124v-123h176q-4 -15 -15.5 -34.5t-24.5 -37.5t-23 -30.5l-10 -12.5h-103v-165q-3 -8 -14 -27t-26 -40t-30.5 -39.5t-25.5 -24.5v559q0 16 5 32t13 29t19.5 21t24.5 8z" />
    <glyph glyph-name="FL0047h" unicode="G" 
d="M293 -65v155l-70 -90h-149q-9 0 -17.5 9.5t-15 22.5t-11 27t-4.5 22v319q0 10 4.5 22t12 22.5t16.5 18t18 7.5h262q7 0 16 -7.5t16.5 -18t12.5 -22.5t5 -22v-499q0 -13 -3.5 -27t-10 -26t-15.5 -19.5t-19 -7.5h-280l33 66t31 48h168zM122 117h171v239h-171v-239z" />
    <glyph glyph-name="FL0048h" unicode="H" 
d="M122 651v-181h218q8 0 17 -9.5t16 -22.5t11.5 -27t4.5 -22v-389h-96v353h-171v-231q-3 -8 -14 -27t-26 -40t-30.5 -39.5t-25.5 -24.5v517q19 38 42 77.5t54 65.5z" />
    <glyph glyph-name="FL0049h" unicode="I" horiz-adv-x="147" 
d="M122 479v-356q-3 -8 -14 -27t-26 -40t-30.5 -39.5t-25.5 -24.5v344q21 35 45 74.5t51 68.5z" />
    <glyph glyph-name="FL004Ah" unicode="J" horiz-adv-x="147" 
d="M26 -65v535h96v-569q0 -13 -3.5 -27t-10 -26t-15.5 -19.5t-19 -7.5h-245l33 66t31 48h133zM122 651v-143h-96q21 35 45 74.5t51 68.5z" />
    <glyph glyph-name="FL004Bh" unicode="K" horiz-adv-x="402" 
d="M122 177v-55q-3 -8 -14 -27t-26 -40t-30.5 -39.5t-25.5 -24.5v517q21 35 45 74.5t51 68.5v-359h60l95 179h112l-126 -236l126 -235h-112l-95 177h-60z" />
    <glyph glyph-name="FL004Ch" unicode="L" horiz-adv-x="147" 
d="M122 651v-521q-3 -8 -14 -27t-26 -40t-30.5 -39.5t-25.5 -24.5v509q21 35 45 74.5t51 68.5z" />
    <glyph glyph-name="FL004Dh" unicode="M" horiz-adv-x="530" 
d="M218 -9v363h-96v-232q-3 -8 -14 -27t-26 -40t-30.5 -39.5t-25.5 -24.5v399q0 8 4.5 22t11.5 27t15.5 22.5t16.5 9.5h382q8 0 17 -9.5t16 -22.5t11.5 -27t4.5 -22v-390h-96v354h-95v-232q-20 -39 -44 -70.5t-52 -60.5z" />
    <glyph glyph-name="FL004Eh" unicode="N" 
d="M122 353v-231q-3 -8 -14 -27t-26 -40t-30.5 -39.5t-25.5 -24.5v398q0 8 4.5 22t11.5 27t15.5 22.5t16.5 9.5h266q8 0 17 -9.5t16 -22.5t11.5 -27t4.5 -22v-389h-96v353h-171z" />
    <glyph glyph-name="FL004Fh" unicode="O" 
d="M26 81v320q0 7 5 19t12.5 23t16 19.5t15.5 8.5h263q8 0 17 -7.5t16.5 -18t12.5 -22.5t5 -22v-320q0 -8 -4.5 -22t-11.5 -27t-16 -22.5t-17 -9.5h-266q-8 0 -16.5 9.5t-15.5 22.5t-11.5 27t-4.5 22zM122 117h171v240h-171v-240z" />
    <glyph glyph-name="FL0050h" unicode="P" 
d="M26 -179q30 33 56 75.5t40 88.5q2 4 4.5 9.5t3.5 5.5h210q8 0 17 9.5t16 22.5t11.5 27t4.5 22v320q0 10 -5 22t-12.5 22.5t-16.5 18t-17 7.5h-263q-7 0 -15.5 -8.5t-16 -19.5t-12.5 -23t-5 -19v-580zM293 117h-100q-19 -19 -36.5 -43t-34.5 -53v336h171v-240z" />
    <glyph glyph-name="FL0051h" unicode="Q" 
d="M389 -179q-31 33 -56.5 75.5t-39.5 88.5q-2 4 -4.5 9.5t-3.5 5.5h-211q-8 0 -16.5 9.5t-15.5 22.5t-11.5 27t-4.5 22v320q0 10 4.5 22t12 22.5t16.5 18t18 7.5h262q7 0 16 -8.5t16.5 -19.5t12.5 -23t5 -19v-580zM122 117h100q37 -39 71 -96v336h-171v-240z" />
    <glyph glyph-name="FL0052h" unicode="R" horiz-adv-x="333" 
d="M319 470h-231q-13 0 -24.5 -8t-19.5 -21t-13 -29t-5 -32v-381q10 6 25.5 24.5t30.5 39.5t26 40t14 27v225h124l10 12.5t23 30.5t24.5 37.5t15.5 34.5z" />
    <glyph glyph-name="FL0053h" unicode="S" horiz-adv-x="416" 
d="M122 293h205q13 0 24.5 -7.5t20 -20t13.5 -28t5 -31.5v-116q0 -16 -5 -32t-13 -29t-19.5 -21t-24.5 -8h-302q4 15 15.5 34.5t24 37.5t22.5 30.5t11 12.5h195v63h-206q-13 0 -24.5 7.5t-19.5 19.5t-13 27.5t-5 31.5v116q0 16 5 32t13 29t19.5 21t24.5 8h302
q-4 -15 -15.5 -34.5t-24.5 -37.5t-23 -30.5l-10 -12.5h-195v-62z" />
    <glyph glyph-name="FL0054h" unicode="T" horiz-adv-x="334" 
d="M122 651v-181h198q-4 -15 -15.5 -34.5t-24.5 -37.5t-23 -30.5t-11 -12.5h-124v-240h198q-4 -15 -15.5 -34.5t-24.5 -37.5t-23 -30.5t-11 -12.5h-158q-13 0 -24.5 8t-19.5 20.5t-13 28.5t-5 32v419q21 35 45 74.5t51 68.5z" />
    <glyph glyph-name="FL0055h" unicode="U" 
d="M293 117v232q2 7 13 26t26 40.5t30.5 40t26.5 24.5v-399q0 -8 -4.5 -22t-11.5 -27t-16 -22.5t-17 -9.5h-266q-8 0 -16.5 9.5t-15.5 22.5t-11.5 27t-4.5 22v390h96v-354h171z" />
    <glyph glyph-name="FL0056h" unicode="V" horiz-adv-x="390" 
d="M115 471l80 -296l80 296h102l-110 -414q-12 -22 -25 -35.5t-28 -21.5h-37q-14 8 -27 22.5t-22 34.5l-114 414h101z" />
    <glyph glyph-name="FL0057h" unicode="W" horiz-adv-x="530" 
d="M313 480v-363h96v232q2 7 13 26t26 40.5t30.5 40t26.5 24.5v-399q0 -8 -4.5 -22t-11.5 -27t-16 -22.5t-17 -9.5h-382q-8 0 -16.5 9.5t-15.5 22.5t-11.5 27t-4.5 22v390h96v-354h95v232q19 39 44 71.5t52 59.5z" />
    <glyph glyph-name="FL0058h" unicode="X" horiz-adv-x="390" 
d="M126 471l69 -131l70 131h112l-126 -236l126 -235h-112l-70 130l-69 -130h-112l125 235l-125 236h112z" />
    <glyph glyph-name="FL0059h" unicode="Y" 
d="M293 -65v65h-219q-8 0 -16.5 9.5t-15.5 22.5t-11.5 27t-4.5 22v390h96v-354h171v232q2 7 13 26t26 40.5t30.5 40t26.5 24.5v-579q0 -13 -3.5 -27t-10 -26t-15.5 -19.5t-19 -7.5h-280l33 66t31 48h168z" />
    <glyph glyph-name="FL005Ah" unicode="Z" horiz-adv-x="416" 
d="M236 355l-210 -265q0 -16 4.5 -32t12 -29t18.5 -21t24 -8h305q-4 15 -15.5 34.5t-24.5 37.5t-23 30.5l-10 12.5h-139l212 265q0 16 -4.5 32t-12 29t-18.5 21t-24 8h-305q4 -15 15.5 -34.5t24 -37.5t22.5 -30.5t11 -12.5h137z" />
    <glyph glyph-name="FL005Bh" unicode="[" horiz-adv-x="244" 
d="M165 -115h-139v702h212q-4 -15 -15.5 -34.5t-24.5 -37.5t-23 -30.5l-10 -12.5h-43v-472h116q-4 -15 -15.5 -34.5t-24.5 -37.5t-23 -30.5z" />
    <glyph glyph-name="FL005Ch" unicode="\" 
d="M389 0l-251 471h-112l251 -471h112z" />
    <glyph glyph-name="FL005Dh" unicode="]" horiz-adv-x="244" 
d="M79 -115h139v702h-212q4 -15 15.5 -34.5t24.5 -37.5t23 -30.5l10 -12.5h43v-472h-116q4 -15 15.5 -34.5t24.5 -37.5t23 -30.5z" />
    <glyph glyph-name="FL0061h" unicode="^" horiz-adv-x="390" 
d="M115 0l80 296l80 -296h102l-110 414q-12 22 -25 35.5t-28 21.5h-37q-14 -8 -27 -22.5t-22 -34.5l-114 -414h101z" />
    <glyph glyph-name="FL005Fh" unicode="_" horiz-adv-x="365" 
d="M26 0v115h313q-4 -15 -15.5 -34.5t-24.5 -37.5t-23 -30.5l-10 -12.5h-240z" />
    <glyph glyph-name="FL0060h" unicode="`" horiz-adv-x="194" 
d="M106 643h-92l73 -121h93z" />
    <glyph glyph-name="a" unicode="a" horiz-adv-x="402" 
d="M281 293h-208q-7 0 -15.5 -7t-15.5 -18t-12 -24t-5 -24v-150q0 -12 5 -24.5t12.5 -22.5t17.5 -16.5t21 -6.5h240q8 0 17.5 7t18 17.5t14.5 22.5t6 23v330q0 10 -5.5 22t-14 22.5t-18 18t-17.5 7.5h-233q-1 0 -23.5 -30t-51.5 -85h267v-62zM120 138v17q0 7 2 15t7 8h80
l72 92v-155h-152q-7 0 -8 8.5t-1 14.5z" />
    <glyph glyph-name="FL0062h" unicode="b" 
d="M192 354h101v-240h-171v336q14 -24 30.5 -48t39.5 -48zM26 650v-580q0 -7 5 -19t12.5 -23t16 -19.5t15.5 -8.5h263q8 0 17 7.5t16.5 18t12.5 22.5t5 22v320q0 8 -4.5 22t-11.5 27t-16 22.5t-17 9.5h-210q-1 0 -3.5 5.5t-4.5 9.5q-14 46 -40 88.5t-56 75.5z" />
    <glyph glyph-name="FL0063h" unicode="c" horiz-adv-x="380" 
d="M293 0h-205q-13 0 -24.5 8t-19.5 20.5t-13 28.5t-5 32v291q0 16 5 32t13 29t19.5 21t24.5 8h278q-4 -15 -15.5 -34.5t-24.5 -37.5t-23 -30.5l-10 -12.5h-171v-240h244q-4 -15 -15.5 -34.5t-24.5 -37.5t-23 -30.5z" />
    <glyph glyph-name="d" unicode="d" 
d="M222 354h-100v-240h171v336q-14 -24 -30.5 -48t-40.5 -48zM389 650v-580q0 -7 -5 -19t-12.5 -23t-16.5 -19.5t-16 -8.5h-262q-9 0 -18 7.5t-16.5 18t-12 22.5t-4.5 22v320q0 8 4.5 22t11.5 27t15.5 22.5t16.5 9.5h211q1 0 3.5 5.5t4.5 9.5q14 46 39.5 88.5t56.5 75.5z
" />
    <glyph glyph-name="FL0065h" unicode="e" horiz-adv-x="402" 
d="M122 177h208q7 0 15.5 7t15.5 18t12 24t5 24v150q0 12 -5 24.5t-12.5 22.5t-18 16.5t-20.5 6.5h-240q-8 0 -17.5 -7t-18 -17.5t-14.5 -23t-6 -22.5v-330q0 -10 5.5 -22t13.5 -22.5t17.5 -18t18.5 -7.5h233l23 30t52 85h-267v62zM282 332v-17q0 -7 -1.5 -15t-6.5 -8h-80
l-72 -92v155h152q6 0 7 -8.5t1 -14.5z" />
    <glyph glyph-name="FL0066h" unicode="f" horiz-adv-x="333" 
d="M88 470h231q-4 -15 -15.5 -34.5t-24.5 -37.5t-23 -30.5l-10 -12.5h-124v-123h176q-4 -15 -15.5 -34.5t-24.5 -37.5t-23 -30.5l-10 -12.5h-103v-165q-3 -8 -14 -27t-26 -40t-30.5 -39.5t-25.5 -24.5v559q0 16 5 32t13 29t19.5 21t24.5 8z" />
    <glyph glyph-name="FL0067h" unicode="g" 
d="M293 -65v155l-70 -90h-149q-9 0 -17.5 9.5t-15 22.5t-11 27t-4.5 22v319q0 10 4.5 22t12 22.5t16.5 18t18 7.5h262q7 0 16 -7.5t16.5 -18t12.5 -22.5t5 -22v-499q0 -13 -3.5 -27t-10 -26t-15.5 -19.5t-19 -7.5h-280l33 66t31 48h168zM122 117h171v239h-171v-239z" />
    <glyph glyph-name="FL0068h" unicode="h" 
d="M122 651v-181h218q8 0 17 -9.5t16 -22.5t11.5 -27t4.5 -22v-389h-96v353h-171v-231q-3 -8 -14 -27t-26 -40t-30.5 -39.5t-25.5 -24.5v517q21 35 45 74.5t51 68.5z" />
    <glyph glyph-name="i" unicode="i" horiz-adv-x="147" 
d="M122 508v143q-27 -29 -51 -68.5t-45 -74.5h96zM122 470h-96v-471q10 6 25.5 24.5t30.5 39.5t26 40t14 27v340z" />
    <glyph glyph-name="FL006Bh" unicode="j" horiz-adv-x="147" 
d="M26 -65v535h96v-569q0 -13 -3.5 -27t-10 -26t-15.5 -19.5t-19 -7.5h-245l33 66t31 48h133zM122 651v-143h-96q21 35 45 74.5t51 68.5z" />
    <glyph glyph-name="FL0072h" unicode="k" horiz-adv-x="402" 
d="M122 177v-55q-3 -8 -14 -27t-26 -40t-30.5 -39.5t-25.5 -24.5v517q21 35 45 74.5t51 68.5v-359h60l95 179h112l-126 -236l126 -235h-112l-95 177h-60z" />
    <glyph glyph-name="FL006Ch" unicode="l" horiz-adv-x="147" 
d="M122 651v-528q-3 -8 -14 -27t-26 -40t-30.5 -39.5t-25.5 -24.5v516q21 35 45 74.5t51 68.5z" />
    <glyph glyph-name="FL006Dh" unicode="m" horiz-adv-x="530" 
d="M218 -9v363h-96v-232q-3 -8 -14 -27t-26 -40t-30.5 -39.5t-25.5 -24.5v399q0 8 4.5 22t11.5 27t15.5 22.5t16.5 9.5h382q8 0 17 -9.5t16 -22.5t11.5 -27t4.5 -22v-390h-96v354h-95v-232q-20 -39 -44 -70.5t-52 -60.5z" />
    <glyph glyph-name="FL006Eh" unicode="n" 
d="M122 353v-231q-3 -8 -14 -27t-26 -40t-30.5 -39.5t-25.5 -24.5v398q0 8 4.5 22t11.5 27t15.5 22.5t16.5 9.5h266q8 0 17 -9.5t16 -22.5t11.5 -27t4.5 -22v-389h-96v353h-171z" />
    <glyph glyph-name="FL006Fh" unicode="o" 
d="M26 81v320q0 7 5 19t12.5 23t16 19.5t15.5 8.5h263q8 0 17 -7.5t16.5 -18t12.5 -22.5t5 -22v-320q0 -8 -4.5 -22t-11.5 -27t-16 -22.5t-17 -9.5h-266q-8 0 -16.5 9.5t-15.5 22.5t-11.5 27t-4.5 22zM122 117h171v240h-171v-240z" />
    <glyph glyph-name="FL0070h" unicode="p" 
d="M26 -179q30 33 56 75.5t40 88.5q2 4 4.5 9.5t3.5 5.5h210q8 0 17 9.5t16 22.5t11.5 27t4.5 22v320q0 10 -5 22t-12.5 22.5t-16.5 18t-17 7.5h-263q-7 0 -15.5 -8.5t-16 -19.5t-12.5 -23t-5 -19v-580zM293 117h-100q-19 -19 -36.5 -43t-34.5 -53v336h171v-240z" />
    <glyph glyph-name="FL0071h" unicode="q" 
d="M389 -179q-31 33 -56.5 75.5t-39.5 88.5q-2 4 -4.5 9.5t-3.5 5.5h-211q-8 0 -16.5 9.5t-15.5 22.5t-11.5 27t-4.5 22v320q0 10 4.5 22t12 22.5t16.5 18t18 7.5h262q7 0 16 -8.5t16.5 -19.5t12.5 -23t5 -19v-580zM122 117h100q37 -39 71 -96v336h-171v-240z" />
    <glyph glyph-name="r" unicode="r" horiz-adv-x="333" 
d="M319 470h-231q-13 0 -24.5 -8t-19.5 -21t-13 -29t-5 -32v-381q10 6 25.5 24.5t30.5 39.5t26 40t14 27v225h124l10 12.5t23 30.5t24.5 37.5t15.5 34.5z" />
    <glyph glyph-name="FL0073h" unicode="s" horiz-adv-x="416" 
d="M122 293h205q13 0 24.5 -7.5t20 -20t13.5 -28t5 -31.5v-116q0 -16 -5 -32t-13 -29t-19.5 -21t-24.5 -8h-302q4 15 15.5 34.5t24 37.5t22.5 30.5t11 12.5h195v63h-206q-13 0 -24.5 7.5t-19.5 19.5t-13 27.5t-5 31.5v116q0 16 5 32t13 29t19.5 21t24.5 8h302
q-4 -15 -15.5 -34.5t-24.5 -37.5t-23 -30.5l-10 -12.5h-195v-62z" />
    <glyph glyph-name="FL0074h" unicode="t" horiz-adv-x="334" 
d="M122 651v-181h198q-4 -15 -15.5 -34.5t-24.5 -37.5t-23 -30.5t-11 -12.5h-124v-240h198q-4 -15 -15.5 -34.5t-24.5 -37.5t-23 -30.5t-11 -12.5h-158q-13 0 -24.5 8t-19.5 20.5t-13 28.5t-5 32v419q21 35 45 74.5t51 68.5z" />
    <glyph glyph-name="FL0075h" unicode="u" 
d="M293 117v232q2 7 13 26t26 40.5t30.5 40t26.5 24.5v-399q0 -8 -4.5 -22t-11.5 -27t-16 -22.5t-17 -9.5h-266q-8 0 -16.5 9.5t-15.5 22.5t-11.5 27t-4.5 22v390h96v-354h171z" />
    <glyph glyph-name="FL0076h" unicode="v" horiz-adv-x="390" 
d="M115 471l80 -296l80 296h102l-110 -414q-12 -22 -25 -35.5t-28 -21.5h-37q-14 8 -27 22.5t-22 34.5l-114 414h101z" />
    <glyph glyph-name="FL0077h" unicode="w" horiz-adv-x="530" 
d="M313 480v-363h96v232q2 7 13 26t26 40.5t30.5 40t26.5 24.5v-399q0 -8 -4.5 -22t-11.5 -27t-16 -22.5t-17 -9.5h-382q-8 0 -16.5 9.5t-15.5 22.5t-11.5 27t-4.5 22v390h96v-354h95v232q19 39 44 71.5t52 59.5z" />
    <glyph glyph-name="FL0078h" unicode="x" horiz-adv-x="390" 
d="M126 471l69 -131l70 131h112l-126 -236l126 -235h-112l-70 130l-69 -130h-112l125 235l-125 236h112z" />
    <glyph glyph-name="FL0079h" unicode="y" 
d="M293 -65v65h-219q-8 0 -16.5 9.5t-15.5 22.5t-11.5 27t-4.5 22v390h96v-354h171v232q2 7 13 26t26 40.5t30.5 40t26.5 24.5v-579q0 -13 -3.5 -27t-10 -26t-15.5 -19.5t-19 -7.5h-280l33 66t31 48h168z" />
    <glyph glyph-name="FL007Ah" unicode="z" horiz-adv-x="416" 
d="M236 355l-210 -265q0 -16 4.5 -32t12 -29t18.5 -21t24 -8h305q-4 15 -15.5 34.5t-24.5 37.5t-23 30.5l-10 12.5h-139l212 265q0 16 -4.5 32t-12 29t-18.5 21t-24 8h-305q4 -15 15.5 -34.5t24 -37.5t22.5 -30.5t11 -12.5h137z" />
    <glyph glyph-name="FL007Bh" unicode="{" horiz-adv-x="331" 
d="M175 -115h77q1 0 11 12.5t22.5 30.5t24.5 37.5t16 34.5h-117v472h43q1 0 11 12.5t22.5 30.5t24.5 37.5t16 34.5h-151q-13 0 -24.5 -8t-19.5 -21t-13 -29t-5 -32v-205h-99q4 -15 15.5 -34.5t24.5 -37.5t23 -30.5l10 -12.5h26v-203q0 -16 5 -32t13 -28.5t19.5 -20.5
t24.5 -8z" />
    <glyph glyph-name="FL007Ch" unicode="|" horiz-adv-x="147" 
d="M122 753v-782q-3 -8 -14 -27t-26 -40t-30.5 -39.5t-25.5 -24.5v770q21 35 45 74.5t51 68.5z" />
    <glyph glyph-name="FL007Dh" unicode="}" horiz-adv-x="331" 
d="M156 -115h-77l-10 12.5t-23 30.5t-24.5 37.5t-15.5 34.5h116v472h-43l-10 12.5t-23 30.5t-24.5 37.5t-15.5 34.5h150q13 0 24.5 -8t19.5 -21t13 -29t5 -32v-205h100q-4 -15 -16 -34.5t-24.5 -37.5t-22.5 -30.5t-11 -12.5h-26v-203q0 -16 -5 -32t-13 -28.5t-19.5 -20.5
t-24.5 -8z" />
    <glyph glyph-name="FL007Eh" unicode="~" horiz-adv-x="331" 
d="M158 292l36 -56l34 56h90l-72 -116h-72l-36 56l-35 -56h-89l71 116h73z" />
    <glyph glyph-name="FL007Fh" horiz-adv-x="150" 
 />
    <glyph glyph-name="FL20ACh" unicode="&#x20ac;" horiz-adv-x="466" 
d="M26 250v75h74v55q0 16 5 32t13 29t19.5 21t24.5 8h279q-4 -15 -16 -34.5t-24.5 -37.5t-22.5 -30.5t-11 -12.5h-171v-30h147q-4 -10 -16.5 -23t-27 -24.5t-25.5 -19.5t-12 -8h-66v-32h147q-4 -9 -17 -22t-27 -24.5t-25 -19.5t-12 -8h-66v-29h245q-4 -15 -16 -34.5
t-24.5 -37.5t-22.5 -30.5t-11 -12.5h-205q-13 0 -24.5 8t-19.5 20.5t-13 28.5t-5 32v55h-74v74h74v32h-74z" />
    <glyph glyph-name="FL201Ah" unicode="&#x201a;" horiz-adv-x="151" 
d="M26 58q0 25 14 43t35 18t36 -18t15 -43v-1q0 -34 -14.5 -63t-41.5 -56v61h-2q-17 0 -29.5 17.5t-12.5 41.5z" />
    <glyph glyph-name="FL0192h" unicode="&#x192;" horiz-adv-x="345" 
d="M88 641h231q-4 -15 -15.5 -34.5t-24.5 -37.5t-23 -30.5l-10 -12.5h-124v-123h176q-4 -15 -15.5 -34.5t-24.5 -37.5t-23 -30.5l-10 -12.5h-103v-165q-3 -8 -14 -27t-26 -40t-30.5 -39.5t-25.5 -24.5v559q0 16 5 32t13 29t19.5 21t24.5 8z" />
    <glyph glyph-name="FL201Eh" unicode="&#x201e;" horiz-adv-x="273" 
d="M147 58q0 25 14.5 43t35.5 18t35.5 -18t14.5 -43v-1q0 -34 -14.5 -63t-40.5 -56v61h-2q-17 0 -30 17.5t-13 41.5zM26 58q0 25 14 43t35 18t36 -18t15 -43v-1q0 -34 -14.5 -63t-41.5 -56v61h-2q-17 0 -29.5 17.5t-12.5 41.5z" />
    <glyph glyph-name="FL2026h" unicode="&#x2026;" horiz-adv-x="396" 
d="M270 58q0 25 14.5 43t35.5 18t35.5 -18t14.5 -43q0 -24 -14.5 -42t-35.5 -18t-35.5 18t-14.5 42zM148 60q0 25 14.5 43t35.5 18t35.5 -18t14.5 -43q0 -24 -14.5 -42t-35.5 -18t-35.5 18t-14.5 42zM26 60q0 25 14 43t35 18t36 -18t15 -43q0 -24 -15 -42t-36 -18t-35 18
t-14 42z" />
    <glyph glyph-name="FL2020h" unicode="&#x2020;" horiz-adv-x="338" 
d="M213 479v-99h100q-4 -15 -16 -34.5t-24.5 -37.5t-22.5 -30.5t-11 -12.5h-26v-142q-3 -8 -14 -27t-26 -40t-30.5 -39.5t-25.5 -24.5v273h-91v115h117l34 52t36 47z" />
    <glyph glyph-name="FL2021h" unicode="&#x2021;" horiz-adv-x="338" 
d="M213 479v-99h100q-4 -15 -16 -34.5t-24.5 -37.5t-22.5 -30.5t-11 -12.5h-26v-60h100q-4 -15 -16 -34.5t-24.5 -37.5t-22.5 -30.5t-11 -12.5h-44q-8 -14 -18.5 -29t-21.5 -29t-21 -25t-17 -15v98h-91v115h91v60h-91v115h117l34 52t36 47z" />
    <glyph glyph-name="FL02C6h" unicode="&#x2c6;" horiz-adv-x="310" 
d="M210 642l74 -121h-93l-37 59l-36 -59h-92l73 121h111z" />
    <glyph glyph-name="FL2030h" unicode="&#x2030;" horiz-adv-x="679" 
d="M60 0l251 471h112l-251 -471h-112zM26 310v148q0 4 3 11t7.5 14t9.5 11.5t9 4.5h121q5 0 10.5 -4.5t10 -10.5t7.5 -13t3 -13v-148q0 -5 -2.5 -12.5t-7 -15t-10 -13t-10.5 -5.5h-122q-6 0 -11 5.5t-9 13t-6.5 15t-2.5 12.5zM84 428v-92h64v92h-64zM275 17v148q0 4 3 11
t7.5 14t10 11.5t9.5 4.5h121q5 0 10.5 -4.5t10 -10.5t7.5 -13t3 -13v-148q0 -5 -2.5 -12.5t-7 -15t-10 -13t-11.5 -5.5h-121q-6 0 -11 5.5t-9.5 13t-7 15t-2.5 12.5zM334 135v-92h64v92h-64zM472 17v148q0 4 3 11t7.5 14t10 11.5t9.5 4.5h120q5 0 11 -4.5t10.5 -10.5
t7.5 -13t3 -13v-148q0 -5 -2.5 -12.5t-7 -15t-10 -13t-11.5 -5.5h-121q-6 0 -11.5 5.5t-9.5 13t-6.5 15t-2.5 12.5zM530 135v-92h64v92h-64z" />
    <glyph glyph-name="FL0160h" unicode="&#x160;" horiz-adv-x="416" 
d="M122 293h205q13 0 24.5 -7.5t20 -20t13.5 -28t5 -31.5v-116q0 -16 -5 -32t-13 -29t-19.5 -21t-24.5 -8h-302q4 15 15.5 34.5t24 37.5t22.5 30.5t11 12.5h195v63h-206q-13 0 -24.5 7.5t-19.5 19.5t-13 27.5t-5 31.5v116q0 16 5 32t13 29t19.5 21t24.5 8h302
q-4 -15 -15.5 -34.5t-24.5 -37.5t-23 -30.5l-10 -12.5h-195v-62zM151 520l-73 121h92l37 -59l36 59h93l-74 -121h-111z" />
    <glyph glyph-name="FL2039h" unicode="&#x2039;" horiz-adv-x="148" 
d="M26 307l96 92v-116l-47 -46l47 -45v-116l-96 92v139z" />
    <glyph glyph-name="FL0152h" unicode="&#x152;" horiz-adv-x="698" 
d="M293 0h-205q-13 0 -24.5 8t-19.5 20.5t-13 28.5t-5 32v291q0 16 5 32t13 29t19.5 21t24.5 8h518q10 0 20.5 -6.5t18 -16.5t12.5 -22.5t5 -24.5v-150q0 -11 -5 -24t-12 -24t-15.5 -18t-15.5 -7h-208v-62h267q-29 -55 -52 -85l-23 -30h-233q-11 0 -23 11t-21 25
q-11 -16 -19 -26t-9 -10zM122 355v-240h188v260q-8 -9 -12.5 -14.5l-4.5 -5.5h-171zM566 315v17q0 6 -1 14.5t-7 8.5h-152v-155l72 92h80q5 0 6.5 8t1.5 15z" />
    <glyph glyph-name="FL017Dh" unicode="&#x17d;" horiz-adv-x="416" 
d="M26 90l210 265h-137q-1 0 -11 12.5t-22.5 30.5t-24 37.5t-15.5 34.5h305q13 0 24 -8t18.5 -21t12 -29t4.5 -32l-212 -265h139l10 -12.5t23 -30.5t24.5 -37.5t15.5 -34.5h-305q-13 0 -24 8t-18.5 21t-12 29t-4.5 32zM151 520l-73 121h92l37 -59l36 59h93l-74 -121h-111z
" />
    <glyph glyph-name="FL2018h" unicode="&#x2018;" horiz-adv-x="151" 
d="M125 466q0 -25 -14.5 -43t-35.5 -18t-35.5 18t-14.5 43v1q0 34 14.5 63t40.5 56v-61h2q17 0 30 -17.5t13 -41.5z" />
    <glyph glyph-name="FL2019h" unicode="&#x2019;" horiz-adv-x="151" 
d="M26 526q0 25 14 43t35 18t36 -18t15 -43v-1q0 -34 -14.5 -63t-41.5 -56v61h-2q-17 0 -29.5 17.5t-12.5 41.5z" />
    <glyph glyph-name="FL201Ch" unicode="&#x201c;" horiz-adv-x="271" 
d="M125 466q0 -25 -14.5 -43t-35.5 -18t-35.5 18t-14.5 43v1q0 34 14.5 63t40.5 56v-61h2q17 0 30 -17.5t13 -41.5zM245 466q0 -25 -14.5 -43t-35.5 -18t-35.5 18t-14.5 43v1q0 34 14.5 63t40.5 56v-61h2q17 0 30 -17.5t13 -41.5z" />
    <glyph glyph-name="FL201Dh" unicode="&#x201d;" horiz-adv-x="271" 
d="M146 526q0 25 14 43t35 18t36 -18t15 -43v-1q0 -34 -14.5 -63t-41.5 -56v61h-2q-17 0 -29.5 17.5t-12.5 41.5zM26 526q0 25 14 43t35 18t36 -18t15 -43v-1q0 -34 -14.5 -63t-41.5 -56v61h-2q-17 0 -29.5 17.5t-12.5 41.5z" />
    <glyph glyph-name="FL2022h" unicode="&#x2022;" 
d="M26 81v320q0 7 5 19t12.5 23t16 19.5t15.5 8.5h263q8 0 17 -7.5t16.5 -18t12.5 -22.5t5 -22v-320q0 -8 -4.5 -22t-11.5 -27t-16 -22.5t-17 -9.5h-266q-8 0 -16.5 9.5t-15.5 22.5t-11.5 27t-4.5 22z" />
    <glyph glyph-name="FL2013h" unicode="&#x2013;" horiz-adv-x="283" 
d="M26 177v115h232q-4 -15 -16 -34.5t-24.5 -37.5t-22.5 -30.5t-11 -12.5h-158z" />
    <glyph glyph-name="FL2014h" unicode="&#x2014;" horiz-adv-x="366" 
d="M26 177v115h314q-4 -15 -15.5 -34.5t-24.5 -37.5t-23 -30.5t-11 -12.5h-240z" />
    <glyph glyph-name="FL02DCh" unicode="&#x2dc;" horiz-adv-x="366" 
d="M174 642l37 -59l36 59h93l-74 -121h-75l-37 58l-36 -58h-92l73 121h75z" />
    <glyph glyph-name="FL2122h" unicode="&#x2122;" horiz-adv-x="236" 
d="M58 635v-100h15v100h33v17h-80v-17h32zM121 649v-114h10v76l5 6l22 -76q1 -6 4 -6h5q1 0 3 1.5t5 10t8.5 25.5t13.5 48l3 -9v-76h10v117h-4q-10 0 -16 -8.5t-14 -34.5l-11 -40l-13 51q-2 11 -10.5 22t-11.5 11q-6 0 -9 -4z" />
    <glyph glyph-name="FL0161h" unicode="&#x161;" horiz-adv-x="416" 
d="M122 293h205q13 0 24.5 -7.5t20 -20t13.5 -28t5 -31.5v-116q0 -16 -5 -32t-13 -29t-19.5 -21t-24.5 -8h-302q4 15 15.5 34.5t24 37.5t22.5 30.5t11 12.5h195v63h-206q-13 0 -24.5 7.5t-19.5 19.5t-13 27.5t-5 31.5v116q0 16 5 32t13 29t19.5 21t24.5 8h302
q-4 -15 -15.5 -34.5t-24.5 -37.5t-23 -30.5l-10 -12.5h-195v-62zM151 520l-73 121h92l37 -59l36 59h93l-74 -121h-111z" />
    <glyph glyph-name="FL203Ah" unicode="&#x203a;" horiz-adv-x="148" 
d="M122 307l-97 92v-116l47 -46l-47 -45v-116l97 92v139z" />
    <glyph glyph-name="FL0153h" unicode="&#x153;" horiz-adv-x="698" 
d="M293 0h-205q-13 0 -24.5 8t-19.5 20.5t-13 28.5t-5 32v291q0 16 5 32t13 29t19.5 21t24.5 8h518q10 0 20.5 -6.5t18 -16.5t12.5 -22.5t5 -24.5v-150q0 -11 -5 -24t-12 -24t-15.5 -18t-15.5 -7h-208v-62h267q-29 -55 -52 -85l-23 -30h-233q-11 0 -23 11t-21 25
q-11 -16 -19 -26t-9 -10zM122 355v-240h188v260q-8 -9 -12.5 -14.5l-4.5 -5.5h-171zM566 315v17q0 6 -1 14.5t-7 8.5h-152v-155l72 92h80q5 0 6.5 8t1.5 15z" />
    <glyph glyph-name="FL017Eh" unicode="&#x17e;" horiz-adv-x="416" 
d="M26 90l210 265h-137q-1 0 -11 12.5t-22.5 30.5t-24 37.5t-15.5 34.5h305q13 0 24 -8t18.5 -21t12 -29t4.5 -32l-212 -265h139l10 -12.5t23 -30.5t24.5 -37.5t15.5 -34.5h-305q-13 0 -24 8t-18.5 21t-12 29t-4.5 32zM151 520l-73 121h92l37 -59l36 59h93l-74 -121h-111z
" />
    <glyph glyph-name="FL0178h" unicode="&#x178;" 
d="M293 -65v65h-219q-8 0 -16.5 9.5t-15.5 22.5t-11.5 27t-4.5 22v390h96v-354h171v232q2 7 13 26t26 40.5t30.5 40t26.5 24.5v-579q0 -13 -3.5 -27t-10 -26t-15.5 -19.5t-19 -7.5h-280l33 66t31 48h168zM93 582q0 25 14 43t35 18t36 -18t15 -43q0 -24 -15 -42t-36 -18
t-35 18t-14 42zM221 582q0 25 14 43t35 18t36 -18t15 -43q0 -24 -15 -42t-36 -18t-35 18t-14 42z" />
    <glyph glyph-name="FL00A1h" unicode="&#xa1;" horiz-adv-x="151" 
d="M27 -3v389q3 8 14 27t26 40t30 39.5t26 24.5v-377q-22 -35 -46 -74.5t-50 -68.5zM126 590q0 -25 -14.5 -43t-35.5 -18t-35.5 18t-14.5 43q0 24 14.5 42t35.5 18t35.5 -18t14.5 -42z" />
    <glyph glyph-name="FL00A2h" unicode="&#xa2;" horiz-adv-x="392" 
d="M262 571v-151h104q-4 -15 -15.5 -34.5t-24.5 -37.5t-23 -30.5l-10 -12.5h-31v-140h104q-4 -15 -15.5 -34.5t-24.5 -37.5t-23 -30.5l-10 -12.5h-31v-19q-3 -8 -14 -27t-26 -40t-30.5 -39.5t-25.5 -24.5v150h-78q-13 0 -24.5 8t-19.5 20.5t-13 28.5t-5 32v191q0 16 5 32
t13 29t19.5 21t24.5 8h78v13q21 35 45 72t51 66zM122 305v-140h44v140h-44z" />
    <glyph glyph-name="FL00A5h" unicode="&#xa3;" horiz-adv-x="430" 
d="M26 180v114h71v86q0 16 5 32t13 29t19.5 21t24.5 8h129q-4 -15 -15.5 -34.5t-24 -37.5t-23 -30.5t-11.5 -12.5h-21v-61h143q-4 -15 -15.5 -34.5t-24 -37.5t-23 -30.5t-11.5 -12.5h-69v-64h211q-4 -15 -15.5 -34.5t-24 -37.5t-23 -30.5t-11.5 -12.5h-304v115h71v65h-71z
" />
    <glyph glyph-name="FL00A4h" unicode="&#xa4;" horiz-adv-x="390" 
d="M46 110v255q0 8 10 26l-42 80h112l26 -50h86l27 50h112l-42 -78q9 -17 9 -28v-255q0 -11 -10 -31l43 -79h-112l-25 46h-90l-24 -46h-112l41 79q-4 10 -6.5 17.5t-2.5 13.5zM125 139h141v191h-141v-191z" />
    <glyph glyph-name="FL00A9h" unicode="&#xa5;" horiz-adv-x="534" 
d="M293 -65v65h-219q-8 0 -16.5 9.5t-15.5 22.5t-11.5 27t-4.5 22v390h96v-354h171v232q2 7 13 26t26 40.5t30.5 40t26.5 24.5v-100h120q-4 -15 -16 -34.5t-24.5 -37.5t-22.5 -30.5t-11 -12.5h-46v-60h120q-4 -15 -16 -34.5t-24.5 -37.5t-22.5 -30.5t-11 -12.5h-46v-189
q0 -13 -3.5 -27t-10 -26t-15.5 -19.5t-19 -7.5h-280l33 66t31 48h168z" />
    <glyph glyph-name="FL00A6h" unicode="&#xa6;" horiz-adv-x="147" 
d="M122 753v-782q-3 -8 -14 -27t-26 -40t-30.5 -39.5t-25.5 -24.5v770q21 35 45 74.5t51 68.5z" />
    <glyph glyph-name="FL00A7h" unicode="&#xa7;" horiz-adv-x="390" 
d="M46 110v255q0 6 4 15.5t10.5 18.5t13.5 15.5t13 6.5h151l27 50h112l-42 -78q9 -17 9 -28v-255q0 -6 -3.5 -17t-9.5 -21.5t-13 -18t-14 -7.5h-154l-24 -46h-112l41 79q-4 10 -6.5 17.5t-2.5 13.5zM125 139h141v191h-141v-191z" />
    <glyph glyph-name="FL00A8h" unicode="&#xa8;" horiz-adv-x="279" 
d="M26 582q0 25 14 43t35 18t36 -18t15 -43q0 -24 -15 -42t-36 -18t-35 18t-14 42zM154 582q0 25 14 43t35 18t36 -18t15 -43q0 -24 -15 -42t-36 -18t-35 18t-14 42z" />
    <glyph glyph-name="copyright" unicode="&#xa9;" horiz-adv-x="206" 
d="M103 652q-18 0 -37 -14q-11 -5 -16.5 -15t-11.5 -21q-12 -24 -12 -48q0 -14 3 -26t8 -23q7 -13 13 -20.5t15 -15.5q17 -13 38 -13q22 0 39 13q17 10 28 36q11 21 11 49q0 27 -11 48q-9 25 -28 36q-19 14 -39 14zM103 635q9 0 16 -2t16 -8q13 -10 24 -31q8 -15 8 -40
q0 -24 -8 -41q-18 -40 -56 -40q-28 0 -46 23t-18 58q0 31 18 56t43 25h3zM129 537q-5 -24 -26 -24q-11 0 -18.5 10t-7.5 30q0 21 7.5 31t19.5 10q15 0 23 -20l12 4q-6 30 -34 30q-20 0 -31.5 -12.5t-11.5 -41.5t11 -42.5t30 -13.5q31 0 39 36z" />
    <glyph glyph-name="FL005Eh" unicode="&#xaa;" horiz-adv-x="390" 
d="M133 0l33 66t31 48h44l-46 175l-75 -289h-106l109 414q12 22 25 35.5t28 21.5h38q14 -8 26.5 -22.5t21.5 -34.5l115 -414h-244z" />
    <glyph glyph-name="FL00ABh" unicode="&#xab;" horiz-adv-x="278" 
d="M155 307l97 92v-116l-47 -46l47 -45v-116l-97 92v139zM26 307l96 92v-116l-47 -46l47 -45v-116l-96 92v139z" />
    <glyph glyph-name="FL00ACh" unicode="&#xac;" horiz-adv-x="366" 
d="M339 38h-92v138h-222q4 15 15.5 34.5t24.5 37.5t23 30.5l10 12.5h241v-253z" />
    <glyph glyph-name="FL00ADh" unicode="&#xad;" horiz-adv-x="249" 
d="M26 177v115h197q-4 -15 -15.5 -34.5t-24.5 -37.5t-23 -30.5l-10 -12.5h-124z" />
    <glyph glyph-name="registered" unicode="&#xae;" horiz-adv-x="206" 
d="M103 652q-17 0 -37 -14q-11 -5 -16.5 -14t-12.5 -22q-5 -12 -8 -23t-3 -25t3 -26t8 -23q7 -13 13 -20.5t15 -15.5q18 -12 38 -12q21 0 39 12q20 13 28 36q11 21 11 49q0 27 -11 48q-10 25 -28 37q-17 13 -39 13zM103 635q9 0 16 -2t16 -8q16 -10 24 -31q8 -15 8 -40
q0 -24 -8 -41q-9 -21 -23 -29l-33 -11q-15 0 -32 11q-32 26 -32 70q0 31 18 56t43 25h3zM70 500h12v44h8q9 0 12 -3q4 -3 14 -24l7 -17h17l-13 26q-5 11 -7.5 14.5t-9.5 5.5q24 4 24 30q0 8 -4 15q-5 8 -10 11t-22 3h-28v-105zM82 559v31h23q6 0 7 -1q7 -4 7 -14
q0 -8 -3 -12t-17 -4h-17z" />
    <glyph glyph-name="FL00AFh" unicode="&#xaf;" horiz-adv-x="365" 
d="M26 537v115h313q-4 -15 -15.5 -34.5t-24.5 -37.5t-23 -30.5l-10 -12.5h-240z" />
    <glyph glyph-name="FL00B0h" unicode="&#xb0;" horiz-adv-x="151" 
d="M26 582q0 -24 14 -42t35 -18t36 18t15 42q0 25 -15 43t-36 18t-35 -18t-14 -43zM58 582q0 9 4.5 15.5t12.5 6.5t13 -6.5t5 -15.5t-5 -16t-13 -7t-12.5 7t-4.5 16z" />
    <glyph glyph-name="FL00B1h" unicode="&#xb1;" horiz-adv-x="366" 
d="M26 115h179q-12 10 -24 23t-21.5 24.5t-16 20l-6.5 8.5v38h-111v115h111v128h92v-128h111q-4 -15 -15.5 -34.5t-24.5 -37.5t-23 -30.5t-11 -12.5h-37v-114h112q-4 -15 -16 -34.5t-24.5 -37.5t-22.5 -30.5t-11 -12.5h-241v115z" />
    <glyph glyph-name="FL00B2h" unicode="&#xb2;" horiz-adv-x="239" 
d="M152 570h-87q-14 0 -25 -15.5t-11 -33.5v-53q0 -19 9.5 -35t26.5 -16h149q-3 9 -10 21t-14.5 23.5t-13.5 19l-6 7.5h-83v11h88q15 0 25.5 15t10.5 34v53q0 18 -10.5 34.5t-25.5 16.5h-149q2 -9 9 -21.5t14.5 -24t13.5 -19t7 -7.5h82v-10z" />
    <glyph glyph-name="FL00B4h" unicode="&#xb3;" horiz-adv-x="225" 
d="M70 652h93q17 0 26.5 -16t9.5 -35v-133q0 -19 -9.5 -35t-26.5 -16h-137q2 9 8.5 21t14 23.5t13.5 19t8 7.5h71v10h-115q2 9 8.5 21t14 23.5t13.5 19t8 7.5h71v11h-115q2 9 8.5 21.5t14 24t13.5 19t8 7.5z" />
    <glyph glyph-name="FL00B5h" unicode="&#xb4;" horiz-adv-x="194" 
d="M87 643h93l-74 -121h-92z" />
    <glyph glyph-name="FL00B6h" unicode="&#xb5;" 
d="M122 -65v65h218q8 0 17 9.5t16 22.5t11.5 27t4.5 22v390h-96v-354h-171v232q-3 7 -14 26t-25.5 40.5t-30 40t-26.5 24.5v-579q0 -13 3.5 -27t10 -26t15 -19.5t19.5 -7.5h280q-19 38 -33.5 66t-30.5 48h-168z" />
    <glyph glyph-name="FL0193h" unicode="&#xb6;" horiz-adv-x="974" 
d="M949 263q0 19 -82 52q45 4 45 40v4v4l-123 37q25 3 25 39l-13 14h-146l6 41l-43 7l-122 -28l-6 7l6 21l-26 20l-109 -61l-55 41q-16 -8 -33 -28t-39 -55l-69 28h-3q-28 0 -28 -98l-72 9l-6 -42l36 -48l-66 -14l7 -35l67 -36l-38 -34q0 -26 18 -26l98 -21l-19 -23v-25
l159 -15l-6 -35l18 -14l153 29v-43l20 -6l115 69l37 -43l31 8l59 75q21 -14 35.5 -20.5t28.5 -6.5q17 0 23 15l6 82l62 -14q19 6 19 31v5q0 2 -0.5 4t-0.5 3l-38 54h56l12 29l0.5 1t0.5 2zM930 253l-78 -8q49 -64 49 -82l-0.5 -1.5t-0.5 -7.5l-81 16l-5 -98l-80 29l-60 -83
l-56 40l-122 -69l7 29l-20 27l-153 -33l20 46l-172 8l49 40l-147 36l68 35l-103 62l77 6l-42 62l-5 28l79 -6l11 96q39 -30 61 -30q-8 0 14 5l66 80l48 -41l111 62l13 -7l5 -41l159 27l-12 -49h165l-50 -40l141 -34l8 -15h-8l-62 -21l100 -54zM810 301l-26 6l-3 -92l16 -3z
M801 173l-17 7l-14 -11l12 -15zM754 180v122l-17 5l-6 -84l-61 78l1 -122l17 1v61q42 -61 66 -61zM654 180l-2 91q-9 39 -29 39q-12 0 -15 -3q-38 -62 -44 -120h22q12 28 27 28q16 0 25 -28zM551 307l-21 -3l-10 -125l26 9zM500 176v120l-20 8l-2 -86l-64 78l4 -123l16 4v58
q42 -59 66 -59zM402 262q-8 41 -45 41h-6l-0.5 -0.5t-2.5 -0.5q-42 -32 -42 -107q7 -22 37 -22q7 0 18 3q30 0 41 86zM299 306q-80 -15 -80 -72v-7q0 -8 1 -9q11 -53 43 -53q5 0 9.5 2t12.5 4l-2 19q-4 -1 -8.5 -1.5t-11.5 -0.5q-24 0 -24 25q0 23 17 49q15 16 29 16h5
q-2 0 -0.5 -0.5t6.5 -1.5zM207 304l-18 -6l-11 -125l24 9zM632 241h-35l22 40zM383 243q0 -17 -10 -36q-10 -5 -17 -7t-11 -2q-18 0 -18 29v8q14 38 31 38q15 0 21 -15q4 -4 4 -15z" />
    <glyph glyph-name="FL00B7h" unicode="&#xb7;" horiz-adv-x="151" 
d="M26 235q0 25 14 43t35 18t36 -18t15 -43q0 -24 -15 -42t-36 -18t-35 18t-14 42z" />
    <glyph glyph-name="FL00B8h" unicode="&#xb8;" horiz-adv-x="132" 
d="M29 0h77v-135h-84q-1 0 -11 8t-23 21t-24.5 28t-15.5 30h81v48z" />
    <glyph glyph-name="FL00B9h" unicode="&#xb9;" horiz-adv-x="109" 
d="M83 651v-182q-2 -5 -8.5 -16t-15.5 -23t-18 -22.5t-15 -14.5v173q9 22 23 41.5t34 43.5z" />
    <glyph glyph-name="FL00BDh" unicode="&#xba;" horiz-adv-x="233" 
d="M26 463v148q0 4 3 11t7.5 14t9.5 11.5t9 4.5h121q5 0 10.5 -4.5t10 -10.5t7.5 -13t3 -13v-148q0 -5 -2.5 -12.5t-7 -15t-10 -13t-10.5 -5.5h-122q-6 0 -11 5.5t-9 13t-6.5 15t-2.5 12.5zM84 581v-92h64v92h-64z" />
    <glyph glyph-name="FL00BBh" unicode="&#xbb;" horiz-adv-x="278" 
d="M122 307l-97 92v-116l47 -46l-47 -45v-116l97 92v139zM251 307l-97 92v-116l48 -46l-48 -45v-116l97 92v139z" />
    <glyph glyph-name="FL00BCh" unicode="&#xbc;" horiz-adv-x="429" 
d="M14 0l218 471h101l-219 -471h-100zM123 500v-182q-2 -5 -9.5 -16t-17.5 -23t-19.5 -22.5t-14.5 -14.5v173q9 22 25 41.5t36 43.5zM403 214v-174q-2 -5 -8.5 -15.5t-15.5 -22.5t-18.5 -22.5t-16.5 -14.5v87h-93q-6 0 -11 5.5t-9 13t-6.5 15.5t-2.5 13v107h58v-81h64v16
q2 4 8.5 15.5t15.5 23.5t18 22t17 12z" />
    <glyph glyph-name="FL00BEh" unicode="&#xbd;" horiz-adv-x="429" 
d="M123 318v182q-20 -24 -37 -43.5t-26 -41.5v-173q6 4 16 14.5t20 22.5t17.5 23t9.5 16zM232 471l-218 -471h100l219 471h-101zM344 124h-87q-14 0 -25 -15.5t-11 -33.5v-53q0 -19 9.5 -35t26.5 -16h149q-3 9 -10 21t-14.5 23.5t-13.5 19l-6 7.5h-83v11h88q15 0 25.5 15
t10.5 34v53q0 18 -10.5 34.5t-25.5 16.5h-149q2 -9 9 -21.5t14.5 -24t13.5 -19t7 -7.5h82v-10z" />
    <glyph glyph-name="FL0939h" unicode="&#xbe;" horiz-adv-x="495" 
d="M80 0l218 471h101l-218 -471h-101zM470 214v-174q-2 -5 -9 -15.5t-16 -22.5t-18.5 -22.5t-16.5 -14.5v87h-92q-6 0 -11.5 5.5t-9.5 13t-6.5 15.5t-2.5 13v107h58v-81h64v16q2 4 8.5 15.5t15.5 23.5t18.5 22t17.5 12zM70 500h93q17 0 26.5 -16t9.5 -35v-133
q0 -19 -9.5 -35t-26.5 -16h-137q2 9 8.5 21t14 23.5t13.5 19t8 7.5h71v10h-115q2 9 8.5 21t14 23.5t13.5 19t8 7.5h71v11h-115q2 9 8.5 21.5t14 24t13.5 19t8 7.5z" />
    <glyph glyph-name="FL00BFh" unicode="&#xbf;" horiz-adv-x="418" 
d="M327 180h-205v-66h195q1 0 11 -12.5t22.5 -30.5t24 -37.5t15.5 -34.5h-302q-13 0 -24.5 8t-19.5 21t-13 29t-5 32v119q0 16 5 31.5t13 27.5t19.5 19.5t24.5 7.5h206v94q3 8 14 27t26 40t30 39.5t26 24.5v-252q0 -16 -5 -31.5t-13.5 -28t-20 -20t-24.5 -7.5zM393 592
q0 -25 -14.5 -43t-35.5 -18t-35.5 18t-14.5 43q0 24 14.5 42t35.5 18t35.5 -18t14.5 -42z" />
    <glyph glyph-name="FL00C0h" unicode="&#xc0;" horiz-adv-x="403" 
d="M121 155v-17q0 -6 1 -14.5t8 -8.5h152v155l-72 -92h-80q-6 0 -7.5 -8t-1.5 -15zM74 293h208v62h-268q30 55 52.5 85t23.5 30h232q9 0 18.5 -7.5t18 -18t14 -22.5t5.5 -22v-330q0 -11 -6 -23t-14.5 -22.5t-18.5 -17.5t-17 -7h-240q-11 0 -21 6.5t-17.5 16.5t-12.5 22.5
t-5 24.5v150q0 11 4.5 24t12 24t15.5 18t16 7zM117 643h93l73 -121h-93z" />
    <glyph glyph-name="FL00C1h" unicode="&#xc1;" horiz-adv-x="403" 
d="M121 155v-17q0 -6 1 -14.5t8 -8.5h152v155l-72 -92h-80q-6 0 -7.5 -8t-1.5 -15zM74 293h208v62h-268q30 55 52.5 85t23.5 30h232q9 0 18.5 -7.5t18 -18t14 -22.5t5.5 -22v-330q0 -11 -6 -23t-14.5 -22.5t-18.5 -17.5t-17 -7h-240q-11 0 -21 6.5t-17.5 16.5t-12.5 22.5
t-5 24.5v150q0 11 4.5 24t12 24t15.5 18t16 7zM205 643h93l-74 -121h-93z" />
    <glyph glyph-name="FL00C2h" unicode="&#xc2;" horiz-adv-x="403" 
d="M121 155v-17q0 -6 1 -14.5t8 -8.5h152v155l-72 -92h-80q-6 0 -7.5 -8t-1.5 -15zM74 293h208v62h-268q30 55 52.5 85t23.5 30h232q9 0 18.5 -7.5t18 -18t14 -22.5t5.5 -22v-330q0 -11 -6 -23t-14.5 -22.5t-18.5 -17.5t-17 -7h-240q-11 0 -21 6.5t-17.5 16.5t-12.5 22.5
t-5 24.5v150q0 11 4.5 24t12 24t15.5 18t16 7zM262 642l74 -121h-93l-37 59l-36 -59h-92l73 121h111z" />
    <glyph glyph-name="FL00C3h" unicode="&#xc3;" horiz-adv-x="403" 
d="M121 155v-17q0 -6 1 -14.5t8 -8.5h152v155l-72 -92h-80q-6 0 -7.5 -8t-1.5 -15zM74 293h208v62h-268q30 55 52.5 85t23.5 30h232q9 0 18.5 -7.5t18 -18t14 -22.5t5.5 -22v-330q0 -11 -6 -23t-14.5 -22.5t-18.5 -17.5t-17 -7h-240q-11 0 -21 6.5t-17.5 16.5t-12.5 22.5
t-5 24.5v150q0 11 4.5 24t12 24t15.5 18t16 7zM198 642l37 -59l36 59h93l-74 -121h-75l-37 58l-36 -58h-92l73 121h75z" />
    <glyph glyph-name="FL00C4h" unicode="&#xc4;" horiz-adv-x="403" 
d="M121 155v-17q0 -6 1 -14.5t8 -8.5h152v155l-72 -92h-80q-6 0 -7.5 -8t-1.5 -15zM74 293h208v62h-268q30 55 52.5 85t23.5 30h232q9 0 18.5 -7.5t18 -18t14 -22.5t5.5 -22v-330q0 -11 -6 -23t-14.5 -22.5t-18.5 -17.5t-17 -7h-240q-11 0 -21 6.5t-17.5 16.5t-12.5 22.5
t-5 24.5v150q0 11 4.5 24t12 24t15.5 18t16 7zM93 582q0 25 14 43t35 18t36 -18t15 -43q0 -24 -15 -42t-36 -18t-35 18t-14 42zM221 582q0 25 14 43t35 18t36 -18t15 -43q0 -24 -15 -42t-36 -18t-35 18t-14 42z" />
    <glyph glyph-name="FL00C5h" unicode="&#xc5;" horiz-adv-x="403" 
d="M158 582q0 -24 14 -42t35 -18t36 18t15 42q0 25 -15 43t-36 18t-35 -18t-14 -43zM282 293h-208q-8 0 -16 -7t-15.5 -18t-12 -24t-4.5 -24v-150q0 -12 5 -24.5t12.5 -22.5t17.5 -16.5t21 -6.5h240q7 0 17 7t18.5 17.5t14.5 22.5t6 23v330q0 10 -5.5 22t-14 22.5t-18 18
t-18.5 7.5h-232q-1 0 -23.5 -30t-52.5 -85h268v-62zM121 138v17q0 7 1.5 15t7.5 8h80l72 92v-155h-152q-7 0 -8 8.5t-1 14.5zM190 582q0 9 4.5 15.5t12.5 6.5t13 -6.5t5 -15.5t-5 -16t-13 -7t-12.5 7t-4.5 16z" />
    <glyph glyph-name="FL00C6h" unicode="&#xc6;" horiz-adv-x="659" 
d="M282 293v62h-268q30 55 52.5 85t23.5 30h488q10 0 20.5 -6.5t18 -16.5t12.5 -22.5t5 -24.5v-150q0 -11 -4.5 -24t-12 -24t-16 -18t-15.5 -7h-208v-62h268q-30 -55 -52.5 -85t-23.5 -30h-488q-11 0 -21 6.5t-17.5 16.5t-12.5 22.5t-5 24.5v150q0 11 4.5 24t12 24t15.5 18
t16 7h208zM539 332q0 6 -1 14.5t-8 8.5h-152v-155l72 92h80q6 0 7.5 8t1.5 15v17zM121 138q0 -6 1 -14.5t8 -8.5h152v155l-72 -92h-80q-6 0 -7.5 -8t-1.5 -15v-17z" />
    <glyph glyph-name="FL00C7h" unicode="&#xc7;" horiz-adv-x="392" 
d="M88 0q-13 0 -24.5 8t-19.5 20.5t-13 28.5t-5 32v291q0 16 5 32t13 29t19.5 21t24.5 8h278q-4 -15 -15.5 -34.5t-24.5 -37.5t-23 -30.5l-10 -12.5h-171v-240h244q-4 -15 -15.5 -34.5t-24.5 -37.5t-23 -30.5l-10 -12.5h-40v-135h-85q-1 0 -11 8t-22.5 21t-24.5 28t-16 30
h81v48h-87z" />
    <glyph glyph-name="FL00C8h" unicode="&#xc8;" horiz-adv-x="402" 
d="M122 177h208q7 0 15.5 7t15.5 18t12 24t5 24v150q0 12 -5 24.5t-12.5 22.5t-18 16.5t-20.5 6.5h-240q-8 0 -17.5 -7t-18 -17.5t-14.5 -23t-6 -22.5v-330q0 -10 5.5 -22t13.5 -22.5t17.5 -18t18.5 -7.5h233l23 30t52 85h-267v62zM282 332v-17q0 -7 -1.5 -15t-6.5 -8h-80
l-72 -92v155h152q6 0 7 -8.5t1 -14.5zM210 643h-93l73 -121h93z" />
    <glyph glyph-name="FL00C9h" unicode="&#xc9;" horiz-adv-x="402" 
d="M282 315v17q0 6 -1 14.5t-7 8.5h-152v-155l72 92h80q5 0 6.5 8t1.5 15zM330 177h-208v-62h267q-29 -55 -52 -85l-23 -30h-233q-9 0 -18.5 7.5t-17.5 18t-13.5 22.5t-5.5 22v330q0 10 6 22.5t14.5 23t18 17.5t17.5 7h240q10 0 20.5 -6.5t18 -16.5t12.5 -22.5t5 -24.5v-150
q0 -11 -5 -24t-12 -24t-15.5 -18t-15.5 -7zM205 643h93l-74 -121h-93z" />
    <glyph glyph-name="FL00CAh" unicode="&#xca;" horiz-adv-x="402" 
d="M282 315v17q0 6 -1 14.5t-7 8.5h-152v-155l72 92h80q5 0 6.5 8t1.5 15zM330 177h-208v-62h267q-29 -55 -52 -85l-23 -30h-233q-9 0 -18.5 7.5t-17.5 18t-13.5 22.5t-5.5 22v330q0 10 6 22.5t14.5 23t18 17.5t17.5 7h240q10 0 20.5 -6.5t18 -16.5t12.5 -22.5t5 -24.5v-150
q0 -11 -5 -24t-12 -24t-15.5 -18t-15.5 -7zM262 642l74 -121h-93l-37 59l-36 -59h-92l73 121h111z" />
    <glyph glyph-name="FL00CBh" unicode="&#xcb;" horiz-adv-x="402" 
d="M282 315v17q0 6 -1 14.5t-7 8.5h-152v-155l72 92h80q5 0 6.5 8t1.5 15zM330 177h-208v-62h267q-29 -55 -52 -85l-23 -30h-233q-9 0 -18.5 7.5t-17.5 18t-13.5 22.5t-5.5 22v330q0 10 6 22.5t14.5 23t18 17.5t17.5 7h240q10 0 20.5 -6.5t18 -16.5t12.5 -22.5t5 -24.5v-150
q0 -11 -5 -24t-12 -24t-15.5 -18t-15.5 -7zM93 582q0 25 14 43t35 18t36 -18t15 -43q0 -24 -15 -42t-36 -18t-35 18t-14 42zM221 582q0 25 14 43t35 18t36 -18t15 -43q0 -24 -15 -42t-36 -18t-35 18t-14 42z" />
    <glyph glyph-name="FL00CCh" unicode="&#xcc;" horiz-adv-x="147" 
d="M122 479v-356q-3 -8 -14 -27t-26 -40t-30.5 -39.5t-25.5 -24.5v344q21 35 45 74.5t51 68.5zM-12 643h93l73 -121h-92z" />
    <glyph glyph-name="FL00CDh" unicode="&#xcd;" horiz-adv-x="147" 
d="M122 479v-356q-3 -8 -14 -27t-26 -40t-30.5 -39.5t-25.5 -24.5v344q21 35 45 74.5t51 68.5zM68 643h93l-74 -121h-93z" />
    <glyph glyph-name="FL00CEh" unicode="&#xce;" horiz-adv-x="147" 
d="M122 479v-356q-3 -8 -14 -27t-26 -40t-30.5 -39.5t-25.5 -24.5v344q21 35 45 74.5t51 68.5zM130 643l73 -121h-93l-36 59l-36 -59h-93l73 121h112z" />
    <glyph glyph-name="FL00CFh" unicode="&#xcf;" horiz-adv-x="147" 
d="M122 479v-356q-3 -8 -14 -27t-26 -40t-30.5 -39.5t-25.5 -24.5v344q21 35 45 74.5t51 68.5zM-39 582q0 25 14 43t35 18t36 -18t15 -43q0 -24 -15 -42t-36 -18t-35 18t-14 42zM89 582q0 25 14 43t35 18t36 -18t15 -43q0 -24 -15 -42t-36 -18t-35 18t-14 42z" />
    <glyph glyph-name="FL00D0h" unicode="&#xd0;" horiz-adv-x="482" 
d="M26 177v115h68v98q0 8 4.5 22t11.5 27t15.5 22.5t16.5 9.5h211q1 0 3.5 5.5t4.5 9.5q14 46 39.5 88.5t56.5 75.5v-580q0 -7 -5 -19t-12.5 -23t-16.5 -19.5t-16 -8.5h-262q-9 0 -18 7.5t-16.5 18t-12 22.5t-4.5 22v107h-68zM290 354h-100v-62h136q-3 -14 -14.5 -33.5
t-24 -37.5t-23.5 -31t-12 -13h-62v-63h171v336z" />
    <glyph glyph-name="FL00D1h" unicode="&#xd1;" 
d="M122 353v-231q-3 -8 -14 -27t-26 -40t-30.5 -39.5t-25.5 -24.5v398q0 8 4.5 22t11.5 27t15.5 22.5t16.5 9.5h266q8 0 17 -9.5t16 -22.5t11.5 -27t4.5 -22v-389h-96v353h-171zM198 642l37 -59l36 59h93l-74 -121h-75l-37 58l-36 -58h-92l73 121h75z" />
    <glyph glyph-name="FL00D2h" unicode="&#xd2;" 
d="M293 117h-171v240h171v-240zM26 401v-320q0 -8 4.5 -22t11.5 -27t15.5 -22.5t16.5 -9.5h266q8 0 17 9.5t16 22.5t11.5 27t4.5 22v320q0 10 -5 22t-12.5 22.5t-16.5 18t-17 7.5h-263q-7 0 -15.5 -8.5t-16 -19.5t-12.5 -23t-5 -19zM210 643h-93l73 -121h93z" />
    <glyph glyph-name="FL00D3h" unicode="&#xd3;" 
d="M26 81v320q0 7 5 19t12.5 23t16 19.5t15.5 8.5h263q8 0 17 -7.5t16.5 -18t12.5 -22.5t5 -22v-320q0 -8 -4.5 -22t-11.5 -27t-16 -22.5t-17 -9.5h-266q-8 0 -16.5 9.5t-15.5 22.5t-11.5 27t-4.5 22zM122 117h171v240h-171v-240zM205 643h93l-74 -121h-93z" />
    <glyph glyph-name="FL00D4h" unicode="&#xd4;" 
d="M26 81v320q0 7 5 19t12.5 23t16 19.5t15.5 8.5h263q8 0 17 -7.5t16.5 -18t12.5 -22.5t5 -22v-320q0 -8 -4.5 -22t-11.5 -27t-16 -22.5t-17 -9.5h-266q-8 0 -16.5 9.5t-15.5 22.5t-11.5 27t-4.5 22zM122 117h171v240h-171v-240zM262 642l74 -121h-93l-37 59l-36 -59h-92
l73 121h111z" />
    <glyph glyph-name="FL00D5h" unicode="&#xd5;" 
d="M26 81v320q0 7 5 19t12.5 23t16 19.5t15.5 8.5h263q8 0 17 -7.5t16.5 -18t12.5 -22.5t5 -22v-320q0 -8 -4.5 -22t-11.5 -27t-16 -22.5t-17 -9.5h-266q-8 0 -16.5 9.5t-15.5 22.5t-11.5 27t-4.5 22zM122 117h171v240h-171v-240zM198 642l37 -59l36 59h93l-74 -121h-75
l-37 58l-36 -58h-92l73 121h75z" />
    <glyph glyph-name="FL00D6h" unicode="&#xd6;" 
d="M26 81v320q0 7 5 19t12.5 23t16 19.5t15.5 8.5h263q8 0 17 -7.5t16.5 -18t12.5 -22.5t5 -22v-320q0 -8 -4.5 -22t-11.5 -27t-16 -22.5t-17 -9.5h-266q-8 0 -16.5 9.5t-15.5 22.5t-11.5 27t-4.5 22zM122 117h171v240h-171v-240zM93 582q0 25 14 43t35 18t36 -18t15 -43
q0 -24 -15 -42t-36 -18t-35 18t-14 42zM221 582q0 25 14 43t35 18t36 -18t15 -43q0 -24 -15 -42t-36 -18t-35 18t-14 42z" />
    <glyph glyph-name="FL00D7h" unicode="&#xd7;" horiz-adv-x="314" 
d="M235 413l65 -82l-78 -97l79 -99q-9 -5 -23 -8.5t-29 -5t-29 -2t-24 -0.5h-12l-27 33l-79 -99q-5 11 -7.5 28.5t-3.5 36t-1.5 36.5t-0.5 30v16l27 34l-78 98l64 81l79 -98z" />
    <glyph glyph-name="FL00D8h" unicode="&#xd8;" 
d="M26 81v320q0 7 5 19t12.5 23t16 19.5t15.5 8.5h263q8 0 17 -7.5t16.5 -18t12.5 -22.5t5 -22v-320q0 -8 -4.5 -22t-11.5 -27t-16 -22.5t-17 -9.5h-266q-8 0 -16.5 9.5t-15.5 22.5t-11.5 27t-4.5 22zM122 357v-183l95 183h-95zM202 117h91v166z" />
    <glyph glyph-name="FL00D9h" unicode="&#xd9;" 
d="M293 349v-232h-171v354h-96v-390q0 -8 4.5 -22t11.5 -27t15.5 -22.5t16.5 -9.5h266q8 0 17 9.5t16 22.5t11.5 27t4.5 22v399q-11 -6 -26.5 -24.5t-30.5 -40t-26 -40.5t-13 -26zM210 643h-93l73 -121h93z" />
    <glyph glyph-name="FL00DAh" unicode="&#xda;" 
d="M293 117v232q2 7 13 26t26 40.5t30.5 40t26.5 24.5v-399q0 -8 -4.5 -22t-11.5 -27t-16 -22.5t-17 -9.5h-266q-8 0 -16.5 9.5t-15.5 22.5t-11.5 27t-4.5 22v390h96v-354h171zM205 643h93l-74 -121h-93z" />
    <glyph glyph-name="FL00DBh" unicode="&#xdb;" 
d="M293 117v232q2 7 13 26t26 40.5t30.5 40t26.5 24.5v-399q0 -8 -4.5 -22t-11.5 -27t-16 -22.5t-17 -9.5h-266q-8 0 -16.5 9.5t-15.5 22.5t-11.5 27t-4.5 22v390h96v-354h171zM262 642l74 -121h-93l-37 59l-36 -59h-92l73 121h111z" />
    <glyph glyph-name="FL00DCh" unicode="&#xdc;" 
d="M293 117v232q2 7 13 26t26 40.5t30.5 40t26.5 24.5v-399q0 -8 -4.5 -22t-11.5 -27t-16 -22.5t-17 -9.5h-266q-8 0 -16.5 9.5t-15.5 22.5t-11.5 27t-4.5 22v390h96v-354h171zM93 582q0 25 14 43t35 18t36 -18t15 -43q0 -24 -15 -42t-36 -18t-35 18t-14 42zM221 582
q0 25 14 43t35 18t36 -18t15 -43q0 -24 -15 -42t-36 -18t-35 18t-14 42z" />
    <glyph glyph-name="FL00DDh" unicode="&#xdd;" 
d="M293 -65v65h-219q-8 0 -16.5 9.5t-15.5 22.5t-11.5 27t-4.5 22v390h96v-354h171v232q2 7 13 26t26 40.5t30.5 40t26.5 24.5v-579q0 -13 -3.5 -27t-10 -26t-15.5 -19.5t-19 -7.5h-280l33 66t31 48h168zM205 643h93l-74 -121h-93z" />
    <glyph glyph-name="FL00DEh" unicode="&#xde;" 
d="M122 651v-180h216q8 0 17 -7.5t16.5 -18t12.5 -22.5t5 -22v-320q0 -8 -4.5 -22t-11.5 -27t-16 -22.5t-17 -9.5h-210q-1 0 -3.5 -5.5t-4.5 -9.5q-14 -46 -40 -88.5t-56 -75.5v687q21 35 45 74.5t51 68.5zM193 117h100v240h-171v-336z" />
    <glyph glyph-name="FL00DFh" unicode="&#xdf;" horiz-adv-x="392" 
d="M94 470h210q13 0 24.5 -8t19.5 -20.5t13 -28.5t5 -32v-291q0 -16 -5 -32t-13 -29t-19.5 -21t-24.5 -8h-142q4 15 15.5 34.5t24.5 37.5t23 30.5t11 12.5h34v61h-108q4 15 15.5 34.5t24.5 37.5t23 30.5t11 12.5h34v64h-148v-384q-3 -8 -14 -27t-26 -40t-30.5 -39.5
t-25.5 -24.5v532q1 24 10.5 42t20.5 30.5t21.5 19t15.5 6.5z" />
    <glyph glyph-name="FL00E0h" unicode="&#xe0;" horiz-adv-x="403" 
d="M121 155v-17q0 -6 1 -14.5t8 -8.5h152v155l-72 -92h-80q-6 0 -7.5 -8t-1.5 -15zM74 293h208v62h-268q30 55 52.5 85t23.5 30h232q9 0 18.5 -7.5t18 -18t14 -22.5t5.5 -22v-330q0 -11 -6 -23t-14.5 -22.5t-18.5 -17.5t-17 -7h-240q-11 0 -21 6.5t-17.5 16.5t-12.5 22.5
t-5 24.5v150q0 11 4.5 24t12 24t15.5 18t16 7zM117 643h93l73 -121h-93z" />
    <glyph glyph-name="FL00E1h" unicode="&#xe1;" horiz-adv-x="403" 
d="M121 155v-17q0 -6 1 -14.5t8 -8.5h152v155l-72 -92h-80q-6 0 -7.5 -8t-1.5 -15zM74 293h208v62h-268q30 55 52.5 85t23.5 30h232q9 0 18.5 -7.5t18 -18t14 -22.5t5.5 -22v-330q0 -11 -6 -23t-14.5 -22.5t-18.5 -17.5t-17 -7h-240q-11 0 -21 6.5t-17.5 16.5t-12.5 22.5
t-5 24.5v150q0 11 4.5 24t12 24t15.5 18t16 7zM205 643h93l-74 -121h-93z" />
    <glyph glyph-name="FL00E2h" unicode="&#xe2;" horiz-adv-x="403" 
d="M121 155v-17q0 -6 1 -14.5t8 -8.5h152v155l-72 -92h-80q-6 0 -7.5 -8t-1.5 -15zM74 293h208v62h-268q30 55 52.5 85t23.5 30h232q9 0 18.5 -7.5t18 -18t14 -22.5t5.5 -22v-330q0 -11 -6 -23t-14.5 -22.5t-18.5 -17.5t-17 -7h-240q-11 0 -21 6.5t-17.5 16.5t-12.5 22.5
t-5 24.5v150q0 11 4.5 24t12 24t15.5 18t16 7zM262 642l74 -121h-93l-37 59l-36 -59h-92l73 121h111z" />
    <glyph glyph-name="FL00E3h" unicode="&#xe3;" horiz-adv-x="403" 
d="M121 155v-17q0 -6 1 -14.5t8 -8.5h152v155l-72 -92h-80q-6 0 -7.5 -8t-1.5 -15zM74 293h208v62h-268q30 55 52.5 85t23.5 30h232q9 0 18.5 -7.5t18 -18t14 -22.5t5.5 -22v-330q0 -11 -6 -23t-14.5 -22.5t-18.5 -17.5t-17 -7h-240q-11 0 -21 6.5t-17.5 16.5t-12.5 22.5
t-5 24.5v150q0 11 4.5 24t12 24t15.5 18t16 7zM198 642l37 -59l36 59h93l-74 -121h-75l-37 58l-36 -58h-92l73 121h75z" />
    <glyph glyph-name="FL00E4h" unicode="&#xe4;" horiz-adv-x="403" 
d="M121 155v-17q0 -6 1 -14.5t8 -8.5h152v155l-72 -92h-80q-6 0 -7.5 -8t-1.5 -15zM74 293h208v62h-268q30 55 52.5 85t23.5 30h232q9 0 18.5 -7.5t18 -18t14 -22.5t5.5 -22v-330q0 -11 -6 -23t-14.5 -22.5t-18.5 -17.5t-17 -7h-240q-11 0 -21 6.5t-17.5 16.5t-12.5 22.5
t-5 24.5v150q0 11 4.5 24t12 24t15.5 18t16 7zM93 582q0 25 14 43t35 18t36 -18t15 -43q0 -24 -15 -42t-36 -18t-35 18t-14 42zM221 582q0 25 14 43t35 18t36 -18t15 -43q0 -24 -15 -42t-36 -18t-35 18t-14 42z" />
    <glyph glyph-name="FL00E5h" unicode="&#xe5;" horiz-adv-x="403" 
d="M158 582q0 -24 14 -42t35 -18t36 18t15 42q0 25 -15 43t-36 18t-35 -18t-14 -43zM282 293h-208q-8 0 -16 -7t-15.5 -18t-12 -24t-4.5 -24v-150q0 -12 5 -24.5t12.5 -22.5t17.5 -16.5t21 -6.5h240q7 0 17 7t18.5 17.5t14.5 22.5t6 23v330q0 10 -5.5 22t-14 22.5t-18 18
t-18.5 7.5h-232q-1 0 -23.5 -30t-52.5 -85h268v-62zM121 138v17q0 7 1.5 15t7.5 8h80l72 92v-155h-152q-7 0 -8 8.5t-1 14.5zM190 582q0 9 4.5 15.5t12.5 6.5t13 -6.5t5 -15.5t-5 -16t-13 -7t-12.5 7t-4.5 16z" />
    <glyph glyph-name="FL00E6h" unicode="&#xe6;" horiz-adv-x="659" 
d="M282 293v62h-268q30 55 52.5 85t23.5 30h488q10 0 20.5 -6.5t18 -16.5t12.5 -22.5t5 -24.5v-150q0 -11 -4.5 -24t-12 -24t-16 -18t-15.5 -7h-208v-62h268q-30 -55 -52.5 -85t-23.5 -30h-488q-11 0 -21 6.5t-17.5 16.5t-12.5 22.5t-5 24.5v150q0 11 4.5 24t12 24t15.5 18
t16 7h208zM539 332q0 6 -1 14.5t-8 8.5h-152v-155l72 92h80q6 0 7.5 8t1.5 15v17zM121 138q0 -6 1 -14.5t8 -8.5h152v155l-72 -92h-80q-6 0 -7.5 -8t-1.5 -15v-17z" />
    <glyph glyph-name="FL00E7h" unicode="&#xe7;" horiz-adv-x="392" 
d="M88 0q-13 0 -24.5 8t-19.5 20.5t-13 28.5t-5 32v291q0 16 5 32t13 29t19.5 21t24.5 8h278q-4 -15 -15.5 -34.5t-24.5 -37.5t-23 -30.5l-10 -12.5h-171v-240h244q-4 -15 -15.5 -34.5t-24.5 -37.5t-23 -30.5l-10 -12.5h-40v-135h-85q-1 0 -11 8t-22.5 21t-24.5 28t-16 30
h81v48h-87z" />
    <glyph glyph-name="FL00E8h" unicode="&#xe8;" horiz-adv-x="402" 
d="M122 177h208q7 0 15.5 7t15.5 18t12 24t5 24v150q0 12 -5 24.5t-12.5 22.5t-18 16.5t-20.5 6.5h-240q-8 0 -17.5 -7t-18 -17.5t-14.5 -23t-6 -22.5v-330q0 -10 5.5 -22t13.5 -22.5t17.5 -18t18.5 -7.5h233l23 30t52 85h-267v62zM282 332v-17q0 -7 -1.5 -15t-6.5 -8h-80
l-72 -92v155h152q6 0 7 -8.5t1 -14.5zM210 643h-93l73 -121h93z" />
    <glyph glyph-name="FL00E9h" unicode="&#xe9;" horiz-adv-x="402" 
d="M282 315v17q0 6 -1 14.5t-7 8.5h-152v-155l72 92h80q5 0 6.5 8t1.5 15zM330 177h-208v-62h267q-29 -55 -52 -85l-23 -30h-233q-9 0 -18.5 7.5t-17.5 18t-13.5 22.5t-5.5 22v330q0 10 6 22.5t14.5 23t18 17.5t17.5 7h240q10 0 20.5 -6.5t18 -16.5t12.5 -22.5t5 -24.5v-150
q0 -11 -5 -24t-12 -24t-15.5 -18t-15.5 -7zM205 643h93l-74 -121h-93z" />
    <glyph glyph-name="FL00EAh" unicode="&#xea;" horiz-adv-x="402" 
d="M282 315v17q0 6 -1 14.5t-7 8.5h-152v-155l72 92h80q5 0 6.5 8t1.5 15zM330 177h-208v-62h267q-29 -55 -52 -85l-23 -30h-233q-9 0 -18.5 7.5t-17.5 18t-13.5 22.5t-5.5 22v330q0 10 6 22.5t14.5 23t18 17.5t17.5 7h240q10 0 20.5 -6.5t18 -16.5t12.5 -22.5t5 -24.5v-150
q0 -11 -5 -24t-12 -24t-15.5 -18t-15.5 -7zM262 642l74 -121h-93l-37 59l-36 -59h-92l73 121h111z" />
    <glyph glyph-name="FL00EBh" unicode="&#xeb;" horiz-adv-x="402" 
d="M282 315v17q0 6 -1 14.5t-7 8.5h-152v-155l72 92h80q5 0 6.5 8t1.5 15zM330 177h-208v-62h267q-29 -55 -52 -85l-23 -30h-233q-9 0 -18.5 7.5t-17.5 18t-13.5 22.5t-5.5 22v330q0 10 6 22.5t14.5 23t18 17.5t17.5 7h240q10 0 20.5 -6.5t18 -16.5t12.5 -22.5t5 -24.5v-150
q0 -11 -5 -24t-12 -24t-15.5 -18t-15.5 -7zM93 582q0 25 14 43t35 18t36 -18t15 -43q0 -24 -15 -42t-36 -18t-35 18t-14 42zM221 582q0 25 14 43t35 18t36 -18t15 -43q0 -24 -15 -42t-36 -18t-35 18t-14 42z" />
    <glyph glyph-name="FL00ECh" unicode="&#xec;" horiz-adv-x="147" 
d="M122 479v-356q-3 -8 -14 -27t-26 -40t-30.5 -39.5t-25.5 -24.5v344q21 35 45 74.5t51 68.5zM-12 643h93l73 -121h-92z" />
    <glyph glyph-name="FL00EDh" unicode="&#xed;" horiz-adv-x="147" 
d="M122 479v-356q-3 -8 -14 -27t-26 -40t-30.5 -39.5t-25.5 -24.5v344q21 35 45 74.5t51 68.5zM68 643h93l-74 -121h-93z" />
    <glyph glyph-name="FL00EEh" unicode="&#xee;" horiz-adv-x="147" 
d="M122 479v-356q-3 -8 -14 -27t-26 -40t-30.5 -39.5t-25.5 -24.5v344q21 35 45 74.5t51 68.5zM130 643l73 -121h-93l-36 59l-36 -59h-93l73 121h112z" />
    <glyph glyph-name="FL00EFh" unicode="&#xef;" horiz-adv-x="147" 
d="M122 479v-356q-3 -8 -14 -27t-26 -40t-30.5 -39.5t-25.5 -24.5v344q21 35 45 74.5t51 68.5zM-39 582q0 25 14 43t35 18t36 -18t15 -43q0 -24 -15 -42t-36 -18t-35 18t-14 42zM89 582q0 25 14 43t35 18t36 -18t15 -43q0 -24 -15 -42t-36 -18t-35 18t-14 42z" />
    <glyph glyph-name="FL00AAh" unicode="&#xf0;" horiz-adv-x="390" 
d="M377 0h-363l109 414q12 22 25 35.5t28 21.5h38q14 -8 26.5 -22.5t21.5 -34.5zM195 289l-45 -175h91z" />
    <glyph glyph-name="FL00F1h" unicode="&#xf1;" 
d="M122 353v-231q-3 -8 -14 -27t-26 -40t-30.5 -39.5t-25.5 -24.5v398q0 8 4.5 22t11.5 27t15.5 22.5t16.5 9.5h266q8 0 17 -9.5t16 -22.5t11.5 -27t4.5 -22v-389h-96v353h-171zM198 642l37 -59l36 59h93l-74 -121h-75l-37 58l-36 -58h-92l73 121h75z" />
    <glyph glyph-name="FL00F2h" unicode="&#xf2;" 
d="M117 643h93l73 -121h-93zM26 81v320q0 7 5 19t12.5 23t16 19.5t15.5 8.5h263q8 0 17 -7.5t16.5 -18t12.5 -22.5t5 -22v-320q0 -8 -4.5 -22t-11.5 -27t-16 -22.5t-17 -9.5h-266q-8 0 -16.5 9.5t-15.5 22.5t-11.5 27t-4.5 22zM122 117h171v240h-171v-240z" />
    <glyph glyph-name="FL00F3h" unicode="&#xf3;" 
d="M26 81v320q0 7 5 19t12.5 23t16 19.5t15.5 8.5h263q8 0 17 -7.5t16.5 -18t12.5 -22.5t5 -22v-320q0 -8 -4.5 -22t-11.5 -27t-16 -22.5t-17 -9.5h-266q-8 0 -16.5 9.5t-15.5 22.5t-11.5 27t-4.5 22zM122 117h171v240h-171v-240zM205 643h93l-74 -121h-93z" />
    <glyph glyph-name="FL00F4h" unicode="&#xf4;" 
d="M26 81v320q0 7 5 19t12.5 23t16 19.5t15.5 8.5h263q8 0 17 -7.5t16.5 -18t12.5 -22.5t5 -22v-320q0 -8 -4.5 -22t-11.5 -27t-16 -22.5t-17 -9.5h-266q-8 0 -16.5 9.5t-15.5 22.5t-11.5 27t-4.5 22zM122 117h171v240h-171v-240zM262 642l74 -121h-93l-37 59l-36 -59h-92
l73 121h111z" />
    <glyph glyph-name="FL00F5h" unicode="&#xf5;" 
d="M26 81v320q0 7 5 19t12.5 23t16 19.5t15.5 8.5h263q8 0 17 -7.5t16.5 -18t12.5 -22.5t5 -22v-320q0 -8 -4.5 -22t-11.5 -27t-16 -22.5t-17 -9.5h-266q-8 0 -16.5 9.5t-15.5 22.5t-11.5 27t-4.5 22zM122 117h171v240h-171v-240zM198 642l37 -59l36 59h93l-74 -121h-75
l-37 58l-36 -58h-92l73 121h75z" />
    <glyph glyph-name="FL00F6h" unicode="&#xf6;" 
d="M26 81v320q0 7 5 19t12.5 23t16 19.5t15.5 8.5h263q8 0 17 -7.5t16.5 -18t12.5 -22.5t5 -22v-320q0 -8 -4.5 -22t-11.5 -27t-16 -22.5t-17 -9.5h-266q-8 0 -16.5 9.5t-15.5 22.5t-11.5 27t-4.5 22zM122 117h171v240h-171v-240zM93 582q0 25 14 43t35 18t36 -18t15 -43
q0 -24 -15 -42t-36 -18t-35 18t-14 42zM221 582q0 25 14 43t35 18t36 -18t15 -43q0 -24 -15 -42t-36 -18t-35 18t-14 42z" />
    <glyph glyph-name="FL00F7h" unicode="&#xf7;" horiz-adv-x="366" 
d="M26 177v115h314q-4 -15 -15.5 -34.5t-24.5 -37.5t-23 -30.5t-11 -12.5h-240zM126 87q0 25 14.5 43t35.5 18t35.5 -18t14.5 -43q0 -24 -14.5 -42t-35.5 -18t-35.5 18t-14.5 42zM126 375q0 25 14.5 43t35.5 18t35.5 -18t14.5 -43q0 -24 -14.5 -42t-35.5 -18t-35.5 18
t-14.5 42z" />
    <glyph glyph-name="FL00F8h" unicode="&#xf8;" 
d="M26 81v320q0 7 5 19t12.5 23t16 19.5t15.5 8.5h263q8 0 17 -7.5t16.5 -18t12.5 -22.5t5 -22v-320q0 -8 -4.5 -22t-11.5 -27t-16 -22.5t-17 -9.5h-266q-8 0 -16.5 9.5t-15.5 22.5t-11.5 27t-4.5 22zM122 357v-183l95 183h-95zM202 117h91v166z" />
    <glyph glyph-name="FL00F9h" unicode="&#xf9;" 
d="M293 349v-232h-171v354h-96v-390q0 -8 4.5 -22t11.5 -27t15.5 -22.5t16.5 -9.5h266q8 0 17 9.5t16 22.5t11.5 27t4.5 22v399q-11 -6 -26.5 -24.5t-30.5 -40t-26 -40.5t-13 -26zM210 643h-93l73 -121h93z" />
    <glyph glyph-name="FL00FAh" unicode="&#xfa;" 
d="M293 117v232q2 7 13 26t26 40.5t30.5 40t26.5 24.5v-399q0 -8 -4.5 -22t-11.5 -27t-16 -22.5t-17 -9.5h-266q-8 0 -16.5 9.5t-15.5 22.5t-11.5 27t-4.5 22v390h96v-354h171zM205 643h93l-74 -121h-93z" />
    <glyph glyph-name="FL00FBh" unicode="&#xfb;" 
d="M293 117v232q2 7 13 26t26 40.5t30.5 40t26.5 24.5v-399q0 -8 -4.5 -22t-11.5 -27t-16 -22.5t-17 -9.5h-266q-8 0 -16.5 9.5t-15.5 22.5t-11.5 27t-4.5 22v390h96v-354h171zM262 642l74 -121h-93l-37 59l-36 -59h-92l73 121h111z" />
    <glyph glyph-name="FL00FCh" unicode="&#xfc;" 
d="M293 117v232q2 7 13 26t26 40.5t30.5 40t26.5 24.5v-399q0 -8 -4.5 -22t-11.5 -27t-16 -22.5t-17 -9.5h-266q-8 0 -16.5 9.5t-15.5 22.5t-11.5 27t-4.5 22v390h96v-354h171zM93 582q0 25 14 43t35 18t36 -18t15 -43q0 -24 -15 -42t-36 -18t-35 18t-14 42zM221 582
q0 25 14 43t35 18t36 -18t15 -43q0 -24 -15 -42t-36 -18t-35 18t-14 42z" />
    <glyph glyph-name="FL00FDh" unicode="&#xfd;" 
d="M293 -65v65h-219q-8 0 -16.5 9.5t-15.5 22.5t-11.5 27t-4.5 22v390h96v-354h171v232q2 7 13 26t26 40.5t30.5 40t26.5 24.5v-579q0 -13 -3.5 -27t-10 -26t-15.5 -19.5t-19 -7.5h-280l33 66t31 48h168zM205 643h93l-74 -121h-93z" />
    <glyph glyph-name="FL00FEh" unicode="&#xfe;" 
d="M122 651v-180h216q8 0 17 -7.5t16.5 -18t12.5 -22.5t5 -22v-320q0 -8 -4.5 -22t-11.5 -27t-16 -22.5t-17 -9.5h-210q-1 0 -3.5 -5.5t-4.5 -9.5q-14 -46 -40 -88.5t-56 -75.5v687q21 35 45 74.5t51 68.5zM193 117h100v240h-171v-336z" />
    <glyph glyph-name="FL00FFh" unicode="&#xff;" 
d="M293 -65v65h-219q-8 0 -16.5 9.5t-15.5 22.5t-11.5 27t-4.5 22v390h96v-354h171v232q2 7 13 26t26 40.5t30.5 40t26.5 24.5v-579q0 -13 -3.5 -27t-10 -26t-15.5 -19.5t-19 -7.5h-280l33 66t31 48h168zM93 582q0 25 14 43t35 18t36 -18t15 -43q0 -24 -15 -42t-36 -18
t-35 18t-14 42zM221 582q0 25 14 43t35 18t36 -18t15 -43q0 -24 -15 -42t-36 -18t-35 18t-14 42z" />
    </font>
</defs>
</svg>
